<svg xmlns="http://www.w3.org/2000/svg" xmlns:xlink="http://www.w3.org/1999/xlink" xmlns:lucid="lucid" width="3539.03" height="2227.24"><g transform="translate(2220.5 1462.7263804566498)" lucid:page-tab-id="0_0"><path d="M-2500-1500h4000v2500h-4000z" fill="#fff"/><path d="M-48.16-1433.73a8 8 0 0 1 8-8H796.6a8 8 0 0 1 8 8v25.16a8 8 0 0 1-8 8H-40.17a8 8 0 0 1-8-8z" stroke="#000" stroke-opacity="0" stroke-width="2" fill="#fff" fill-opacity="0"/><use xlink:href="#a" transform="matrix(1,0,0,1,-44.16218392647613,-1437.7263804566498) translate(326.16555555555556 25.782777777777778)"/><path d="M127.33-1401.9H633.2M127.35-1401.9h-1.02M633.16-1401.9h1.03" stroke="#a9afb8" stroke-width="2" fill="none"/><path d="M-48.16-1392.57a8 8 0 0 1 8-8h837.7a8 8 0 0 1 8 8v2.84a8 8 0 0 1-8 8h-837.7a8 8 0 0 1-8-8z" stroke="#000" stroke-opacity="0" stroke-width="2" fill="#fff" fill-opacity="0"/><use xlink:href="#b" transform="matrix(1,0,0,1,-44.16218392647568,-1396.5711564997512) translate(302.686183127572 14.917037037037037)"/><use xlink:href="#c" transform="matrix(1,0,0,1,-44.16218392647568,-1396.5711564997512) translate(356.09575102880655 14.917037037037037)"/><use xlink:href="#d" transform="matrix(1,0,0,1,-44.16218392647568,-1396.5711564997512) translate(404.49153292181063 14.917037037037037)"/><use xlink:href="#e" transform="matrix(1,0,0,1,-44.16218392647568,-1396.5711564997512) translate(416.9410185185185 14.917037037037037)"/><use xlink:href="#f" transform="matrix(1,0,0,1,-44.16218392647568,-1396.5711564997512) translate(491.5954423868312 14.917037037037037)"/><use xlink:href="#g" transform="matrix(1,0,0,1,-44.16218392647568,-1396.5711564997512) translate(515.9420473251029 14.917037037037037)"/><path d="M-800-974a6 6 0 0 1 6-6h188a6 6 0 0 1 6 6v129a6 6 0 0 1-6 6h-188a6 6 0 0 1-6-6z" fill="#fff"/><path d="M-800-974a6 6 0 0 1 6-6h188a6 6 0 0 1 6 6v129a6 6 0 0 1-6 6h-188a6 6 0 0 1-6-6zM-800-940h200" stroke="#3a414a" fill="none"/><use xlink:href="#h" transform="matrix(1,0,0,1,-790,-980) translate(41.94444444444444 24.444444444444443)"/><use xlink:href="#i" transform="matrix(1,0,0,1,-795,-937.5) translate(0 20.444444444444443)"/><use xlink:href="#j" transform="matrix(1,0,0,1,-795,-900.5) translate(0 17.1)"/><use xlink:href="#k" transform="matrix(1,0,0,1,-795,-868.5) translate(0 17.1)"/><path d="M-354.25-937a10.82 10.82 0 0 1 10.5 0l80.5 44.63a3.33 3.33 0 0 1 0 5.82l-80.5 44.64a10.82 10.82 0 0 1-10.5 0l-80.5-44.65a3.33 3.33 0 0 1 0-5.82z" stroke="#3a414a" fill="#fff"/><use xlink:href="#l" transform="matrix(1,0,0,1,-435,-934.9166666666666) translate(57.67166666666667 49.05902777777778)"/><path d="M0-906.5a6 6 0 0 1 6-6h188a6 6 0 0 1 6 6v129a6 6 0 0 1-6 6H6a6 6 0 0 1-6-6z" fill="#fff"/><path d="M0-906.5a6 6 0 0 1 6-6h188a6 6 0 0 1 6 6v129a6 6 0 0 1-6 6H6a6 6 0 0 1-6-6zM0-872.5h200" stroke="#3a414a" fill="none"/><use xlink:href="#m" transform="matrix(1,0,0,1,10,-912.4999970584875) translate(41.913580246913575 24.444444444444443)"/><use xlink:href="#n" transform="matrix(1,0,0,1,5,-869.9999970584875) translate(0 20.444444444444443)"/><use xlink:href="#o" transform="matrix(1,0,0,1,5,-832.9999970584875) translate(0 17.1)"/><use xlink:href="#p" transform="matrix(1,0,0,1,5,-800.9999970584875) translate(0 17.1)"/><path d="M-437.47-889.46h-74.76a6 6 0 0 1-6-6v-58.8a6 6 0 0 0-6-6h-58.9" stroke="#3a414a" fill="none"/><path d="M-436.97-889.46l.05.5h-.56v-1h.56z" stroke="#3a414a" stroke-width=".05" fill="#3a414a"/><path d="M-597.88-960.25l14.26-4.64v9.28z" stroke="#3a414a" fill="#3a414a"/><path d="M-271.16-889.46a.25.25 0 0 1 .25-.25H10.9a.25.25 0 0 1 .26.24.25.25 0 0 1-.25.25h-281.8a.25.25 0 0 1-.26-.26z" stroke="#3a414a" stroke-width=".5" fill="none"/><path d="M-160-370.2a6 6 0 0 1 6-6H34a6 6 0 0 1 6 6v97a6 6 0 0 1-6 6h-188a6 6 0 0 1-6-6z" fill="#fff"/><path d="M-160-370.2a6 6 0 0 1 6-6H34a6 6 0 0 1 6 6v97a6 6 0 0 1-6 6h-188a6 6 0 0 1-6-6zM-160-336.2H40" stroke="#3a414a" fill="none"/><use xlink:href="#q" transform="matrix(1,0,0,1,-150,-376.20413322255865) translate(38.17901234567901 24.444444444444443)"/><use xlink:href="#r" transform="matrix(1,0,0,1,-155,-333.70413322255865) translate(0 20.444444444444443)"/><use xlink:href="#s" transform="matrix(1,0,0,1,-155,-296.70413322255865) translate(0 17.1)"/><path d="M-700-390.3a6 6 0 0 1 6-6h188a6 6 0 0 1 6 6v129a6 6 0 0 1-6 6h-188a6 6 0 0 1-6-6z" fill="#fff"/><path d="M-700-390.3a6 6 0 0 1 6-6h188a6 6 0 0 1 6 6v129a6 6 0 0 1-6 6h-188a6 6 0 0 1-6-6zM-700-356.3h200" stroke="#3a414a" fill="none"/><use xlink:href="#t" transform="matrix(1,0,0,1,-690,-396.287466555892) translate(32.067901234567906 24.444444444444443)"/><use xlink:href="#u" transform="matrix(1,0,0,1,-695,-353.787466555892) translate(0 20.444444444444443)"/><use xlink:href="#v" transform="matrix(1,0,0,1,-695,-316.787466555892) translate(0 17.1)"/><use xlink:href="#p" transform="matrix(1,0,0,1,-695,-284.787466555892) translate(0 17.1)"/><path d="M425.75-652.58a10.82 10.82 0 0 1 10.5 0l80.5 44.64a3.33 3.33 0 0 1 0 5.82l-80.5 44.63a10.82 10.82 0 0 1-10.5 0l-80.5-44.62a3.33 3.33 0 0 1 0-5.82z" stroke="#3a414a" fill="#fff"/><use xlink:href="#w" transform="matrix(1,0,0,1,344.99999999999994,-650.4915999447516) translate(37.9803086419753 49.05902777777778)"/><path d="M342.53-605.03H306a6 6 0 0 1-6-6v-51.87" stroke="#3a414a" fill="none"/><path d="M343.03-605.03l.05.5h-.56v-1h.56z" stroke="#3a414a" stroke-width=".05" fill="#3a414a"/><path d="M300-677.67l4.63 14.27h-9.26z" stroke="#3a414a" fill="#3a414a"/><path d="M700-689.58a6 6 0 0 1 6-6h188a6 6 0 0 1 6 6v102a6 6 0 0 1-6 6H706a6 6 0 0 1-6-6z" fill="#fff"/><path d="M700-689.58a6 6 0 0 1 6-6h188a6 6 0 0 1 6 6v102a6 6 0 0 1-6 6H706a6 6 0 0 1-6-6zM700-655.58h200" stroke="#3a414a" fill="none"/><use xlink:href="#x" transform="matrix(1,0,0,1,710,-695.5749332780849) translate(25.864197530864203 24.444444444444443)"/><use xlink:href="#y" transform="matrix(1,0,0,1,705,-653.0749332780849) translate(0 20.444444444444443)"/><use xlink:href="#z" transform="matrix(1,0,0,1,705,-616.0749332780849) translate(0 20.444444444444443)"/><path d="M-334.25-373.3a10.82 10.82 0 0 1 10.5 0l80.5 44.65a3.33 3.33 0 0 1 0 5.8l-80.5 44.65a10.82 10.82 0 0 1-10.5 0l-80.5-44.64a3.33 3.33 0 0 1 0-5.8z" stroke="#3a414a" fill="#fff"/><use xlink:href="#A" transform="matrix(1,0,0,1,-415,-371.2041332225587) translate(31.12845679012346 49.05902777777778)"/><path d="M-240.53-325.75h64.14" stroke="#3a414a" fill="none"/><path d="M-240.52-325.25h-.56l.05-.5-.05-.5h.56z" stroke="#3a414a" stroke-width=".05" fill="#3a414a"/><path d="M-161.62-325.75l-14.26 4.64v-9.28z" stroke="#3a414a" fill="#3a414a"/><path d="M-499-325.75h65.66" stroke="#3a414a" fill="none"/><path d="M-499-325.25h-.5v-1h.5z" stroke="#3a414a" stroke-width=".05" fill="#3a414a"/><path d="M-418.6-325.75l-14.25 4.64v-9.28z" stroke="#3a414a" fill="#3a414a"/><path d="M-160 26.02a6 6 0 0 1 6-6H34a6 6 0 0 1 6 6v161a6 6 0 0 1-6 6h-188a6 6 0 0 1-6-6z" fill="#fff"/><path d="M-160 26.02a6 6 0 0 1 6-6H34a6 6 0 0 1 6 6v161a6 6 0 0 1-6 6h-188a6 6 0 0 1-6-6zM-160 60.02H40" stroke="#3a414a" fill="none"/><use xlink:href="#B" transform="matrix(1,0,0,1,-150,20.017244738459652) translate(72.09876543209876 24.444444444444443)"/><use xlink:href="#C" transform="matrix(1,0,0,1,-155,62.51724473845965) translate(0 20.444444444444443)"/><use xlink:href="#D" transform="matrix(1,0,0,1,-155,99.51724473845965) translate(0 17.1)"/><use xlink:href="#E" transform="matrix(1,0,0,1,-155,131.51724473845965) translate(0 17.1)"/><use xlink:href="#F" transform="matrix(1,0,0,1,-155,163.51724473845965) translate(0 17.1)"/><path d="M699-675.58h-83.76a6 6 0 0 0-6 6v58.55a6 6 0 0 1-6 6h-67.9" stroke="#3a414a" fill="none"/><path d="M699.5-675.08h-.5v-1h.5z" stroke="#3a414a" stroke-width=".05" fill="#3a414a"/><path d="M520.6-605.03l14.25-4.64v9.27z" stroke="#3a414a" fill="#3a414a"/><path d="M245.75 69.75a10.82 10.82 0 0 1 10.5 0l80.5 44.64a3.33 3.33 0 0 1 0 5.8l-80.5 44.64a10.82 10.82 0 0 1-10.5 0l-80.5-44.64a3.33 3.33 0 0 1 0-5.8z" stroke="#3a414a" fill="#fff"/><use xlink:href="#w" transform="matrix(1,0,0,1,165,71.83708940029763) translate(37.9803086419753 49.05902777777778)"/><path d="M162.53 117.3h-54.78a5.98 5.98 0 0 1-5.98-5.98 5.98 5.98 0 0 0-5.98-5.98H56.87" stroke="#3a414a" fill="none"/><path d="M163.03 117.3l.05.5h-.56v-1h.56z" stroke="#3a414a" stroke-width=".05" fill="#3a414a"/><path d="M42.12 105.34l14.26-4.64v9.27z" stroke="#3a414a" fill="#3a414a"/><path d="M520 57.1a6 6 0 0 1 6-6h188a6 6 0 0 1 6 6v97a6 6 0 0 1-6 6H526a6 6 0 0 1-6-6z" fill="#fff"/><path d="M520 57.1a6 6 0 0 1 6-6h188a6 6 0 0 1 6 6v97a6 6 0 0 1-6 6H526a6 6 0 0 1-6-6zM520 91.1h200" stroke="#3a414a" fill="none"/><use xlink:href="#G" transform="matrix(1,0,0,1,529.9999999999998,51.11070894369831) translate(48.05555555555555 24.444444444444443)"/><use xlink:href="#H" transform="matrix(1,0,0,1,524.9999999999998,93.61070894369831) translate(0 20.444444444444443)"/><use xlink:href="#I" transform="matrix(1,0,0,1,524.9999999999998,130.6107089436983) translate(0 17.1)"/><path d="M519 71.1h-83.76a6 6 0 0 0-6 6v34.2a6 6 0 0 1-6 6h-67.9" stroke="#3a414a" fill="none"/><path d="M519.5 71.6h-.5v-1h.5z" stroke="#3a414a" stroke-width=".05" fill="#3a414a"/><path d="M340.6 117.3l14.25-4.64v9.27z" stroke="#3a414a" fill="#3a414a"/><path d="M1098.03-754a6 6 0 0 1 6-6h188a6 6 0 0 1 6 6v134a6 6 0 0 1-6 6h-188a6 6 0 0 1-6-6z" fill="#fff"/><path d="M1098.03-754a6 6 0 0 1 6-6h188a6 6 0 0 1 6 6v134a6 6 0 0 1-6 6h-188a6 6 0 0 1-6-6zM1098.03-720h200" stroke="#3a414a" fill="none"/><use xlink:href="#J" transform="matrix(1,0,0,1,1108.0284579456627,-760) translate(59.19753086419753 24.444444444444443)"/><use xlink:href="#K" transform="matrix(1,0,0,1,1103.0284579456627,-717.5) translate(0 20.444444444444443)"/><use xlink:href="#y" transform="matrix(1,0,0,1,1103.0284579456627,-680.5) translate(0 20.444444444444443)"/><use xlink:href="#L" transform="matrix(1,0,0,1,1103.0284579456627,-643.5) translate(0 17.1)"/><path d="M1098.03-542.16a6 6 0 0 1 6-6h188a6 6 0 0 1 6 6v166a6 6 0 0 1-6 6h-188a6 6 0 0 1-6-6z" fill="#fff"/><path d="M1098.03-542.16a6 6 0 0 1 6-6h188a6 6 0 0 1 6 6v166a6 6 0 0 1-6 6h-188a6 6 0 0 1-6-6zM1098.03-508.16h200" stroke="#3a414a" fill="none"/><use xlink:href="#M" transform="matrix(1,0,0,1,1108.0284579456627,-548.1624666390423) translate(46.2037037037037 24.444444444444443)"/><use xlink:href="#N" transform="matrix(1,0,0,1,1103.0284579456627,-505.66246663904235) translate(0 20.444444444444443)"/><use xlink:href="#y" transform="matrix(1,0,0,1,1103.0284579456627,-468.66246663904235) translate(0 20.444444444444443)"/><use xlink:href="#O" transform="matrix(1,0,0,1,1103.0284579456627,-431.66246663904235) translate(0 17.1)"/><use xlink:href="#P" transform="matrix(1,0,0,1,1103.0284579456627,-399.66246663904235) translate(0 17.1)"/><path d="M1098.03-298.32a6 6 0 0 1 6-6h188a6 6 0 0 1 6 6v166a6 6 0 0 1-6 6h-188a6 6 0 0 1-6-6z" fill="#fff"/><path d="M1098.03-298.32a6 6 0 0 1 6-6h188a6 6 0 0 1 6 6v166a6 6 0 0 1-6 6h-188a6 6 0 0 1-6-6zM1098.03-264.32h200" stroke="#3a414a" fill="none"/><use xlink:href="#Q" transform="matrix(1,0,0,1,1108.0284579456627,-304.3249332780847) translate(54.22839506172839 24.444444444444443)"/><use xlink:href="#R" transform="matrix(1,0,0,1,1103.0284579456627,-261.8249332780847) translate(0 20.444444444444443)"/><use xlink:href="#y" transform="matrix(1,0,0,1,1103.0284579456627,-224.8249332780847) translate(0 20.444444444444443)"/><use xlink:href="#S" transform="matrix(1,0,0,1,1103.0284579456627,-187.8249332780847) translate(0 17.1)"/><use xlink:href="#T" transform="matrix(1,0,0,1,1103.0284579456627,-155.8249332780847) translate(0 17.1)"/><path d="M895.9-385.07a9.63 9.63 0 0 1 10.2 0l70.8 44.1a3.74 3.74 0 0 1 0 6.36l-70.8 44.1a9.63 9.63 0 0 1-10.2 0l-70.8-44.12a3.74 3.74 0 0 1 0-6.34z" stroke="#3a414a" fill="#fff"/><use xlink:href="#w" transform="matrix(1,0,0,1,825,-383.2457999723758) translate(27.980308641975302 49.05902777777778)"/><path d="M979.67-337.8h52.68a6 6 0 0 0 6-6v-351.7a6 6 0 0 1 6-6h36.8" stroke="#3a414a" fill="none"/><path d="M979.68-337.3h-.56l.05-.5-.05-.5h.56z" stroke="#3a414a" stroke-width=".05" fill="#3a414a"/><path d="M1095.9-701.5l-14.26 4.63v-9.26z" stroke="#3a414a" fill="#3a414a"/><path d="M979.67-337.8h52.68a6 6 0 0 0 6-6v-178.36a6 6 0 0 1 6-6h36.8" stroke="#3a414a" fill="none"/><path d="M979.68-337.3h-.56l.05-.5-.05-.5h.56z" stroke="#3a414a" stroke-width=".05" fill="#3a414a"/><path d="M1095.9-528.16l-14.26 4.63v-9.27z" stroke="#3a414a" fill="#3a414a"/><path d="M979.67-337.8h52.68a6 6 0 0 1 6 6v41.48a6 6 0 0 0 6 6h36.8" stroke="#3a414a" fill="none"/><path d="M979.68-337.3h-.56l.05-.5-.05-.5h.56z" stroke="#3a414a" stroke-width=".05" fill="#3a414a"/><path d="M1095.9-284.32l-14.26 4.63v-9.26z" stroke="#3a414a" fill="#3a414a"/><path d="M822.33-337.8H56.88" stroke="#3a414a" fill="none"/><path d="M822.83-337.8l.05.5h-.56v-1h.56z" stroke="#3a414a" stroke-width=".05" fill="#3a414a"/><path d="M42.12-337.8l14.27-4.62-.02 9.27z" stroke="#3a414a" fill="#3a414a"/><path d="M1098.03 48.91a6 6 0 0 1 6-5.98h188a6 6 0 0 1 6 6v134a6 6 0 0 1-6 6h-188a6 6 0 0 1-6-6z" fill="#fff"/><path d="M1098.03 48.91a6 6 0 0 1 6-5.98h188a6 6 0 0 1 6 6v134a6 6 0 0 1-6 6h-188a6 6 0 0 1-6-6zM1098.03 82.92h200" stroke="#3a414a" fill="none"/><use xlink:href="#J" transform="matrix(1,0,0,1,1108.0284579456627,42.91462934616365) translate(59.19753086419753 24.444444444444443)"/><use xlink:href="#K" transform="matrix(1,0,0,1,1103.0284579456627,85.41462934616365) translate(0 20.444444444444443)"/><use xlink:href="#H" transform="matrix(1,0,0,1,1103.0284579456627,122.41462934616365) translate(0 20.444444444444443)"/><use xlink:href="#U" transform="matrix(1,0,0,1,1103.0284579456627,159.41462934616365) translate(0 17.1)"/><path d="M1098.03 260.75a6 6 0 0 1 6-6h188a6 6 0 0 1 6 6v198a6 6 0 0 1-6 6h-188a6 6 0 0 1-6-6z" fill="#fff"/><path d="M1098.03 260.75a6 6 0 0 1 6-6h188a6 6 0 0 1 6 6v198a6 6 0 0 1-6 6h-188a6 6 0 0 1-6-6zM1098.03 294.75h200" stroke="#3a414a" fill="none"/><use xlink:href="#M" transform="matrix(1,0,0,1,1108.0284579456627,254.75216270712133) translate(46.2037037037037 24.444444444444443)"/><use xlink:href="#N" transform="matrix(1,0,0,1,1103.0284579456627,297.25216270712133) translate(0 20.444444444444443)"/><use xlink:href="#H" transform="matrix(1,0,0,1,1103.0284579456627,334.25216270712133) translate(0 20.444444444444443)"/><use xlink:href="#V" transform="matrix(1,0,0,1,1103.0284579456627,371.25216270712133) translate(0 17.1)"/><use xlink:href="#W" transform="matrix(1,0,0,1,1103.0284579456627,403.25216270712133) translate(0 17.1)"/><use xlink:href="#U" transform="matrix(1,0,0,1,1103.0284579456627,435.25216270712133) translate(0 17.1)"/><path d="M1098.03 540.02a6 6 0 0 1 6-6h188a6 6 0 0 1 6 6v198a6 6 0 0 1-6 6h-188a6 6 0 0 1-6-6z" fill="#fff"/><path d="M1098.03 540.02a6 6 0 0 1 6-6h188a6 6 0 0 1 6 6v198a6 6 0 0 1-6 6h-188a6 6 0 0 1-6-6zM1098.03 574.02h200" stroke="#3a414a" fill="none"/><use xlink:href="#Q" transform="matrix(1,0,0,1,1108.0284579456627,534.0172447384595) translate(54.22839506172839 24.444444444444443)"/><use xlink:href="#R" transform="matrix(1,0,0,1,1103.0284579456627,576.5172447384595) translate(0 20.444444444444443)"/><use xlink:href="#H" transform="matrix(1,0,0,1,1103.0284579456627,613.5172447384595) translate(0 20.444444444444443)"/><use xlink:href="#X" transform="matrix(1,0,0,1,1103.0284579456627,650.5172447384595) translate(0 17.1)"/><use xlink:href="#Y" transform="matrix(1,0,0,1,1103.0284579456627,682.5172447384595) translate(0 17.1)"/><use xlink:href="#U" transform="matrix(1,0,0,1,1103.0284579456627,714.5172447384595) translate(0 17.1)"/><path d="M875.9 23.17a9.63 9.63 0 0 1 10.2 0l70.8 44.12a3.74 3.74 0 0 1 0 6.33l-70.8 44.1a9.63 9.63 0 0 1-10.2 0l-70.8-44.1a3.74 3.74 0 0 1 0-6.34z" stroke="#3a414a" fill="#fff"/><use xlink:href="#w" transform="matrix(1,0,0,1,804.9999999999998,24.999999999999993) translate(27.980308641975302 49.05902777777778)"/><path d="M959.67 70.46h62.68a6 6 0 0 1 6 6v18.96a6 6 0 0 0 6 6h46.8" stroke="#3a414a" fill="none"/><path d="M959.68 70.96h-.56l.05-.5-.05-.5h.56z" stroke="#3a414a" stroke-width=".05" fill="#3a414a"/><path d="M1095.9 101.42l-14.26 4.63v-9.27z" stroke="#3a414a" fill="#3a414a"/><path d="M959.67 70.46h62.68a6 6 0 0 1 6 6v192.3a6 6 0 0 0 6 6h46.8" stroke="#3a414a" fill="none"/><path d="M959.68 70.96h-.56l.05-.5-.05-.5h.56z" stroke="#3a414a" stroke-width=".05" fill="#3a414a"/><path d="M1095.9 274.75l-14.26 4.64v-9.28z" stroke="#3a414a" fill="#3a414a"/><path d="M959.67 70.46h62.68a6 6 0 0 1 6 6v471.56a6 6 0 0 0 6 6h46.8" stroke="#3a414a" fill="none"/><path d="M959.68 70.96h-.56l.05-.5-.05-.5h.56z" stroke="#3a414a" stroke-width=".05" fill="#3a414a"/><path d="M1095.9 554.02l-14.26 4.63v-9.27z" stroke="#3a414a" fill="#3a414a"/><path d="M802.33 70.46H762a.33.33 0 0 0-.34.33v-.02a.33.33 0 0 1-.32.33h-24.46" stroke="#3a414a" fill="none"/><path d="M802.83 70.46l.05.5h-.56v-1h.56z" stroke="#3a414a" stroke-width=".05" fill="#3a414a"/><path d="M722.12 71.1l14.26-4.63v9.28z" stroke="#3a414a" fill="#3a414a"/><path d="M-2200-574a6 6 0 0 1 6-6h188a6 6 0 0 1 6 6v161a6 6 0 0 1-6 6h-188a6 6 0 0 1-6-6z" fill="#fff"/><path d="M-2200-574a6 6 0 0 1 6-6h188a6 6 0 0 1 6 6v161a6 6 0 0 1-6 6h-188a6 6 0 0 1-6-6zM-2200-540h200" stroke="#3a414a" fill="none"/><use xlink:href="#Z" transform="matrix(1,0,0,1,-2190,-580) translate(49.876543209876544 24.444444444444443)"/><use xlink:href="#aa" transform="matrix(1,0,0,1,-2195,-537.5) translate(0 20.444444444444443)"/><use xlink:href="#ab" transform="matrix(1,0,0,1,-2195,-500.5) translate(0 17.1)"/><use xlink:href="#k" transform="matrix(1,0,0,1,-2195,-468.5) translate(0 17.1)"/><use xlink:href="#ac" transform="matrix(1,0,0,1,-2195,-436.5) translate(0 17.1)"/><path d="M-1560-571.18a6 6 0 0 1 6-6h188a6 6 0 0 1 6 6v97a6 6 0 0 1-6 6h-188a6 6 0 0 1-6-6z" fill="#fff"/><path d="M-1560-571.18a6 6 0 0 1 6-6h188a6 6 0 0 1 6 6v97a6 6 0 0 1-6 6h-188a6 6 0 0 1-6-6zM-1560-537.18h200" stroke="#3a414a" fill="none"/><use xlink:href="#ad" transform="matrix(1,0,0,1,-1550,-577.1797252118915) translate(25.83333333333333 24.444444444444443)"/><use xlink:href="#ae" transform="matrix(1,0,0,1,-1555,-534.6797252118915) translate(0 20.444444444444443)"/><use xlink:href="#af" transform="matrix(1,0,0,1,-1555,-497.67972521189154) translate(0 17.1)"/><path d="M-1754.25-605.23a10.82 10.82 0 0 1 10.5 0l80.5 44.64a3.33 3.33 0 0 1 0 5.83l-80.5 44.64a10.82 10.82 0 0 1-10.5 0l-80.5-44.64a3.33 3.33 0 0 1 0-5.82z" stroke="#3a414a" fill="#fff"/><use xlink:href="#ag" transform="matrix(1,0,0,1,-1835,-603.1380446276848) translate(66.28277777777778 49.05902777777778)"/><path d="M-1660.53-557.68h83.65" stroke="#3a414a" fill="none"/><path d="M-1660.52-557.18h-.56l.05-.5-.05-.5h.56z" stroke="#3a414a" stroke-width=".05" fill="#3a414a"/><path d="M-1562.12-557.68l-14.26 4.64v-9.28z" stroke="#3a414a" fill="#3a414a"/><path d="M-1999-560.33h79.44a1.33 1.33 0 0 1 1.33 1.32 1.33 1.33 0 0 0 1.32 1.32h63.55" stroke="#3a414a" fill="none"/><path d="M-1999-559.83h-.5v-1h.5z" stroke="#3a414a" stroke-width=".05" fill="#3a414a"/><path d="M-1838.6-557.68l-14.25 4.64v-9.28z" stroke="#3a414a" fill="#3a414a"/><path d="M-1508.24-346.6a6 6 0 0 1 6-6H-1264a6 6 0 0 1 6 6v97a6 6 0 0 1-6 6h-238.24a6 6 0 0 1-6-6z" fill="#fff"/><path d="M-1508.24-346.6a6 6 0 0 1 6-6H-1264a6 6 0 0 1 6 6v97a6 6 0 0 1-6 6h-238.24a6 6 0 0 1-6-6zM-1508.24-312.6H-1258" stroke="#3a414a" fill="none"/><use xlink:href="#ah" transform="matrix(1,0,0,1,-1498.2420813701226,-352.607937329333) translate(57.96913580246913 24.444444444444443)"/><use xlink:href="#ai" transform="matrix(1,0,0,1,-1503.2420813701226,-310.107937329333) translate(0 20.444444444444443)"/><use xlink:href="#aj" transform="matrix(1,0,0,1,-1503.2420813701226,-273.107937329333) translate(0 17.1)"/><path d="M37.6-605.23a10.82 10.82 0 0 1 10.48 0l80.5 44.64a3.33 3.33 0 0 1 0 5.83l-80.5 44.64a10.82 10.82 0 0 1-10.5 0l-80.5-44.64a3.33 3.33 0 0 1 0-5.82z" stroke="#3a414a" fill="#fff"/><use xlink:href="#ak" transform="matrix(1,0,0,1,-43.16218392647568,-603.1380446276848) translate(19.27777777777777 49.94444444444444)"/><path d="M-60-377.2v-59.3a6 6 0 0 1 6-6h90.84a6 6 0 0 0 6-6v-43.4" stroke="#3a414a" fill="none"/><path d="M-59.5-376.7h-1v-.52h1z" stroke="#3a414a" stroke-width=".05" fill="#3a414a"/><path d="M42.84-506.65l4.63 14.26H38.2z" stroke="#3a414a" fill="#3a414a"/><path d="M39.5-769.75a.25.25 0 0 1 .25.25v159a.25.25 0 0 1-.25.25.25.25 0 0 1-.25-.25v-159a.25.25 0 0 1 .25-.25z" stroke="#3a414a" stroke-width=".5" fill="none"/><path d="M80-594a6 6 0 0 1 6-6h228a6 6 0 0 1 6 6v48a6 6 0 0 1-6 6H86a6 6 0 0 1-6-6z" fill="none"/><use xlink:href="#al" transform="matrix(1,0,0,1,80,-600) translate(90.4320987654321 34.44444444444444)"/><path d="M-79.5-266.95a.25.25 0 0 1 .25.25V29.5a.25.25 0 0 1-.25.25.25.25 0 0 1-.25-.25v-296.2a.25.25 0 0 1 .25-.25z" stroke="#3a414a" stroke-width=".5" fill="none"/><path d="M-1754.25-380.3a10.82 10.82 0 0 1 10.5 0l80.5 44.65a3.33 3.33 0 0 1 0 5.8l-80.5 44.65a10.82 10.82 0 0 1-10.5 0l-80.5-44.64a3.33 3.33 0 0 1 0-5.8z" stroke="#3a414a" fill="#fff"/><use xlink:href="#am" transform="matrix(1,0,0,1,-1835,-378.2041332225586) translate(46.49882716049382 49.05902777777778)"/><path d="M-1837.47-332.75h-74.76a6 6 0 0 1-6-6V-448.8a6 6 0 0 0-6-6h-58.9" stroke="#3a414a" fill="none"/><path d="M-1836.97-332.75l.05.5h-.56v-1h.56z" stroke="#3a414a" stroke-width=".05" fill="#3a414a"/><path d="M-1997.88-454.8l14.26-4.64v9.27z" stroke="#3a414a" fill="#3a414a"/><path d="M-1509.24-332.75h-135.4" stroke="#3a414a" fill="none"/><path d="M-1508.74-332.25h-.52v-1h.52z" stroke="#3a414a" stroke-width=".05" fill="#3a414a"/><path d="M-1659.4-332.75l14.25-4.63v9.27z" stroke="#3a414a" fill="#3a414a"/><path d="M-1012.75-541.48a10.82 10.82 0 0 1 10.5 0l80.5 44.64a3.33 3.33 0 0 1 0 5.82l-80.5 44.64a10.82 10.82 0 0 1-10.5 0l-80.5-44.64a3.33 3.33 0 0 1 0-5.82z" stroke="#3a414a" fill="#fff"/><use xlink:href="#an" transform="matrix(1,0,0,1,-1093.499910657012,-539.385938598222) translate(63.19635802469136 31.99652777777778)"/><use xlink:href="#ao" transform="matrix(1,0,0,1,-1093.499910657012,-539.385938598222) translate(37.91858024691357 58.66319444444445)"/><path d="M-1095.97-493.93h-74.5a6 6 0 0 0-6 6v149.18a6 6 0 0 1-6 6h-58.65" stroke="#3a414a" fill="none"/><path d="M-1095.47-493.93l.05.5h-.56v-1h.56z" stroke="#3a414a" stroke-width=".05" fill="#3a414a"/><path d="M-1255.88-332.75l14.26-4.63v9.27z" stroke="#3a414a" fill="#3a414a"/><path d="M-111.5 19.02V-114a6 6 0 0 0-6-6h-884a6 6 0 0 1-6-6v-302.14" stroke="#3a414a" fill="none"/><path d="M-111 19.52h-1V19h1z" stroke="#3a414a" stroke-width=".05" fill="#3a414a"/><path d="M-1007.5-442.9l4.63 14.26h-9.26z" stroke="#3a414a" fill="#3a414a"/><path d="M-600-397.3v-90.63a6 6 0 0 0-6-6h-297.15" stroke="#3a414a" fill="none"/><path d="M-599.5-396.8h-1v-.5h1z" stroke="#3a414a" stroke-width=".05" fill="#3a414a"/><path d="M-917.9-493.93l14.25-4.63v9.27z" stroke="#3a414a" fill="#3a414a"/><path d="M-1-819.4h-193.76a6 6 0 0 0-6 6V-636a6 6 0 0 1-6 6h-794.74a6 6 0 0 0-6 6v64.28" stroke="#3a414a" fill="none"/><path d="M-.5-818.9H-1v-1h.5z" stroke="#3a414a" stroke-width=".05" fill="#3a414a"/><path d="M-1007.5-544.95l-4.63-14.27h9.26z" stroke="#3a414a" fill="#3a414a"/><defs><path fill="#a9afb8" d="M24-248c93 1 206-16 204 79-1 75-69 88-152 82V0H24v-248zm52 121c47 0 100 7 100-41 0-47-54-39-100-39v80" id="ap"/><path fill="#a9afb8" d="M185-48c-13 30-37 53-82 52C43 2 14-33 14-96s30-98 90-98c62 0 83 45 84 108H66c0 31 8 55 39 56 18 0 30-7 34-22zm-45-69c5-46-57-63-70-21-2 6-4 13-4 21h74" id="aq"/><path fill="#a9afb8" d="M135-150c-39-12-60 13-60 57V0H25l-1-190h47c2 13-1 29 3 40 6-28 27-53 61-41v41" id="ar"/><path fill="#a9afb8" d="M137-138c1-29-70-34-71-4 15 46 118 7 119 86 1 83-164 76-172 9l43-7c4 19 20 25 44 25 33 8 57-30 24-41C81-84 22-81 20-136c-2-80 154-74 161-7" id="as"/><path fill="#a9afb8" d="M110-194c64 0 96 36 96 99 0 64-35 99-97 99-61 0-95-36-95-99 0-62 34-99 96-99zm-1 164c35 0 45-28 45-65 0-40-10-65-43-65-34 0-45 26-45 65 0 36 10 65 43 65" id="at"/><path fill="#a9afb8" d="M135-194c87-1 58 113 63 194h-50c-7-57 23-157-34-157-59 0-34 97-39 157H25l-1-190h47c2 12-1 28 3 38 12-26 28-41 61-42" id="au"/><path fill="#a9afb8" d="M133-34C117-15 103 5 69 4 32 3 11-16 11-54c-1-60 55-63 116-61 1-26-3-47-28-47-18 1-26 9-28 27l-52-2c7-38 36-58 82-57s74 22 75 68l1 82c-1 14 12 18 25 15v27c-30 8-71 5-69-32zm-48 3c29 0 43-24 42-57-32 0-66-3-65 30 0 17 8 27 23 27" id="av"/><path fill="#a9afb8" d="M25 0v-261h50V0H25" id="aw"/><path fill="#a9afb8" d="M25-224v-37h50v37H25zM75 22c2 45-34 59-81 51V38c22 5 31-5 31-27v-201h50V22" id="ax"/><path fill="#a9afb8" d="M190-63c-7 42-38 67-86 67-59 0-84-38-90-98-12-110 154-137 174-36l-49 2c-2-19-15-32-35-32-30 0-35 28-38 64-6 74 65 87 74 30" id="ay"/><path fill="#a9afb8" d="M115-3C79 11 28 4 28-45v-112H4v-33h27l15-45h31v45h36v33H77v99c-1 23 16 31 38 25v30" id="az"/><g id="a"><use transform="matrix(0.0728395061728395,0,0,0.0728395061728395,0,0)" xlink:href="#ap"/><use transform="matrix(0.0728395061728395,0,0,0.0728395061728395,17.48148148148148,0)" xlink:href="#aq"/><use transform="matrix(0.0728395061728395,0,0,0.0728395061728395,32.04938271604938,0)" xlink:href="#ar"/><use transform="matrix(0.0728395061728395,0,0,0.0728395061728395,42.24691358024691,0)" xlink:href="#as"/><use transform="matrix(0.0728395061728395,0,0,0.0728395061728395,56.8148148148148,0)" xlink:href="#at"/><use transform="matrix(0.0728395061728395,0,0,0.0728395061728395,72.76666666666667,0)" xlink:href="#au"/><use transform="matrix(0.0728395061728395,0,0,0.0728395061728395,88.71851851851852,0)" xlink:href="#av"/><use transform="matrix(0.0728395061728395,0,0,0.0728395061728395,103.28641975308642,0)" xlink:href="#aw"/><use transform="matrix(0.0728395061728395,0,0,0.0728395061728395,110.57037037037037,0)" xlink:href="#ap"/><use transform="matrix(0.0728395061728395,0,0,0.0728395061728395,128.05185185185184,0)" xlink:href="#ar"/><use transform="matrix(0.0728395061728395,0,0,0.0728395061728395,138.24938271604935,0)" xlink:href="#at"/><use transform="matrix(0.0728395061728395,0,0,0.0728395061728395,154.2012345679012,0)" xlink:href="#ax"/><use transform="matrix(0.0728395061728395,0,0,0.0728395061728395,161.48518518518514,0)" xlink:href="#aq"/><use transform="matrix(0.0728395061728395,0,0,0.0728395061728395,176.05308641975304,0)" xlink:href="#ay"/><use transform="matrix(0.0728395061728395,0,0,0.0728395061728395,190.62098765432094,0)" xlink:href="#az"/></g><path fill="#a9afb8" d="M143 4C61 4 22-44 18-125c-5-107 100-154 193-111 17 8 29 25 37 43l-32 9c-13-25-37-40-76-40-61 0-88 39-88 99 0 61 29 100 91 101 35 0 62-11 79-27v-45h-74v-28h105v86C228-13 192 4 143 4" id="aA"/><path fill="#a9afb8" d="M141-36C126-15 110 5 73 4 37 3 15-17 15-53c-1-64 63-63 125-63 3-35-9-54-41-54-24 1-41 7-42 31l-33-3c5-37 33-52 76-52 45 0 72 20 72 64v82c-1 20 7 32 28 27v20c-31 9-61-2-59-35zM48-53c0 20 12 33 32 33 41-3 63-29 60-74-43 2-92-5-92 41" id="aB"/><path fill="#a9afb8" d="M115-194c53 0 69 39 70 98 0 66-23 100-70 100C84 3 66-7 56-30L54 0H23l1-261h32v101c10-23 28-34 59-34zm-8 174c40 0 45-34 45-75 0-40-5-75-45-74-42 0-51 32-51 76 0 43 10 73 51 73" id="aC"/><path fill="#a9afb8" d="M114-163C36-179 61-72 57 0H25l-1-190h30c1 12-1 29 2 39 6-27 23-49 58-41v29" id="aD"/><path fill="#a9afb8" d="M24-231v-30h32v30H24zM24 0v-190h32V0H24" id="aE"/><path fill="#a9afb8" d="M100-194c63 0 86 42 84 106H49c0 40 14 67 53 68 26 1 43-12 49-29l28 8c-11 28-37 45-77 45C44 4 14-33 15-96c1-61 26-98 85-98zm52 81c6-60-76-77-97-28-3 7-6 17-6 28h103" id="aF"/><path fill="#a9afb8" d="M24 0v-261h32V0H24" id="aG"/><g id="b"><use transform="matrix(0.04248971193415638,0,0,0.04248971193415638,0,0)" xlink:href="#aA"/><use transform="matrix(0.04248971193415638,0,0,0.04248971193415638,11.897119341563785,0)" xlink:href="#aB"/><use transform="matrix(0.04248971193415638,0,0,0.04248971193415638,20.39506172839506,0)" xlink:href="#aC"/><use transform="matrix(0.04248971193415638,0,0,0.04248971193415638,28.893004115226333,0)" xlink:href="#aD"/><use transform="matrix(0.04248971193415638,0,0,0.04248971193415638,33.94927983539094,0)" xlink:href="#aE"/><use transform="matrix(0.04248971193415638,0,0,0.04248971193415638,37.30596707818929,0)" xlink:href="#aF"/><use transform="matrix(0.04248971193415638,0,0,0.04248971193415638,45.80390946502057,0)" xlink:href="#aG"/></g><path fill="#a9afb8" d="M140-251c81 0 123 46 123 126C263-46 219 4 140 4 59 4 17-45 17-125s42-126 123-126zm0 227c63 0 89-41 89-101s-29-99-89-99c-61 0-89 39-89 99S79-25 140-24" id="aH"/><path fill="#a9afb8" d="M206 0h-36l-40-164L89 0H53L-1-190h32L70-26l43-164h34l41 164 42-164h31" id="aI"/><path fill="#a9afb8" d="M117-194c89-4 53 116 60 194h-32v-121c0-31-8-49-39-48C34-167 62-67 57 0H25l-1-190h30c1 10-1 24 2 32 11-22 29-35 61-36" id="aJ"/><g id="c"><use transform="matrix(0.04248971193415638,0,0,0.04248971193415638,0,0)" xlink:href="#aH"/><use transform="matrix(0.04248971193415638,0,0,0.04248971193415638,11.897119341563785,0)" xlink:href="#aI"/><use transform="matrix(0.04248971193415638,0,0,0.04248971193415638,22.901954732510287,0)" xlink:href="#aF"/><use transform="matrix(0.04248971193415638,0,0,0.04248971193415638,31.399897119341556,0)" xlink:href="#aJ"/></g><path fill="#a9afb8" d="M32 76v-337h29V76H32" id="aK"/><use transform="matrix(0.04248971193415638,0,0,0.04248971193415638,0,0)" xlink:href="#aK" id="d"/><path fill="#a9afb8" d="M190 0L58-211 59 0H30v-248h39L202-35l-2-213h31V0h-41" id="aL"/><path fill="#a9afb8" d="M100-194c62-1 85 37 85 99 1 63-27 99-86 99S16-35 15-95c0-66 28-99 85-99zM99-20c44 1 53-31 53-75 0-43-8-75-51-75s-53 32-53 75 10 74 51 75" id="aM"/><path fill="#a9afb8" d="M108 0H70L1-190h34L89-25l56-165h34" id="aN"/><path fill="#a9afb8" d="M210-169c-67 3-38 105-44 169h-31v-121c0-29-5-50-35-48C34-165 62-65 56 0H25l-1-190h30c1 10-1 24 2 32 10-44 99-50 107 0 11-21 27-35 58-36 85-2 47 119 55 194h-31v-121c0-29-5-49-35-48" id="aO"/><g id="e"><use transform="matrix(0.04248971193415638,0,0,0.04248971193415638,0,0)" xlink:href="#aL"/><use transform="matrix(0.04248971193415638,0,0,0.04248971193415638,11.004835390946502,0)" xlink:href="#aM"/><use transform="matrix(0.04248971193415638,0,0,0.04248971193415638,19.502777777777776,0)" xlink:href="#aN"/><use transform="matrix(0.04248971193415638,0,0,0.04248971193415638,27.150925925925925,0)" xlink:href="#aF"/><use transform="matrix(0.04248971193415638,0,0,0.04248971193415638,35.6488683127572,0)" xlink:href="#aO"/><use transform="matrix(0.04248971193415638,0,0,0.04248971193415638,48.35329218106995,0)" xlink:href="#aC"/><use transform="matrix(0.04248971193415638,0,0,0.04248971193415638,56.851234567901244,0)" xlink:href="#aF"/><use transform="matrix(0.04248971193415638,0,0,0.04248971193415638,65.34917695473251,0)" xlink:href="#aD"/></g><path fill="#a9afb8" d="M27 0v-27h64v-190l-56 39v-29l58-41h29v221h61V0H27" id="aP"/><path fill="#a9afb8" d="M68-38c1 34 0 65-14 84H32c9-13 17-26 17-46H33v-38h35" id="aQ"/><g id="f"><use transform="matrix(0.04248971193415638,0,0,0.04248971193415638,0,0)" xlink:href="#aP"/><use transform="matrix(0.04248971193415638,0,0,0.04248971193415638,7.350720164609052,0)" xlink:href="#aP"/><use transform="matrix(0.04248971193415638,0,0,0.04248971193415638,15.848662551440325,0)" xlink:href="#aQ"/></g><path fill="#a9afb8" d="M101-251c82-7 93 87 43 132L82-64C71-53 59-42 53-27h129V0H18c2-99 128-94 128-182 0-28-16-43-45-43s-46 15-49 41l-32-3c6-41 34-60 81-64" id="aR"/><path fill="#a9afb8" d="M101-251c68 0 85 55 85 127S166 4 100 4C33 4 14-52 14-124c0-73 17-127 87-127zm-1 229c47 0 54-49 54-102s-4-102-53-102c-51 0-55 48-55 102 0 53 5 102 54 102" id="aS"/><path fill="#a9afb8" d="M126-127c33 6 58 20 58 59 0 88-139 92-164 29-3-8-5-16-6-25l32-3c6 27 21 44 54 44 32 0 52-15 52-46 0-38-36-46-79-43v-28c39 1 72-4 72-42 0-27-17-43-46-43-28 0-47 15-49 41l-32-3c6-42 35-63 81-64 48-1 79 21 79 65 0 36-21 52-52 59" id="aT"/><g id="g"><use transform="matrix(0.04248971193415638,0,0,0.04248971193415638,0,0)" xlink:href="#aR"/><use transform="matrix(0.04248971193415638,0,0,0.04248971193415638,8.497942386831275,0)" xlink:href="#aS"/><use transform="matrix(0.04248971193415638,0,0,0.04248971193415638,16.99588477366255,0)" xlink:href="#aR"/><use transform="matrix(0.04248971193415638,0,0,0.04248971193415638,25.493827160493822,0)" xlink:href="#aT"/></g><path fill="#3a414a" d="M212-179c-10-28-35-45-73-45-59 0-87 40-87 99 0 60 29 101 89 101 43 0 62-24 78-52l27 14C228-24 195 4 139 4 59 4 22-46 18-125c-6-104 99-153 187-111 19 9 31 26 39 46" id="aU"/><path fill="#3a414a" d="M84 4C-5 8 30-112 23-190h32v120c0 31 7 50 39 49 72-2 45-101 50-169h31l1 190h-30c-1-10 1-25-2-33-11 22-28 36-60 37" id="aV"/><path fill="#3a414a" d="M135-143c-3-34-86-38-87 0 15 53 115 12 119 90S17 21 10-45l28-5c4 36 97 45 98 0-10-56-113-15-118-90-4-57 82-63 122-42 12 7 21 19 24 35" id="aW"/><path fill="#3a414a" d="M59-47c-2 24 18 29 38 22v24C64 9 27 4 27-40v-127H5v-23h24l9-43h21v43h35v23H59v120" id="aX"/><path fill="#3a414a" d="M100-194c62-1 85 37 85 99 1 63-27 99-86 99S16-35 15-95c0-66 28-99 85-99zM99-20c44 1 53-31 53-75 0-43-8-75-51-75s-53 32-53 75 10 74 51 75" id="aY"/><path fill="#3a414a" d="M210-169c-67 3-38 105-44 169h-31v-121c0-29-5-50-35-48C34-165 62-65 56 0H25l-1-190h30c1 10-1 24 2 32 10-44 99-50 107 0 11-21 27-35 58-36 85-2 47 119 55 194h-31v-121c0-29-5-49-35-48" id="aZ"/><path fill="#3a414a" d="M100-194c63 0 86 42 84 106H49c0 40 14 67 53 68 26 1 43-12 49-29l28 8c-11 28-37 45-77 45C44 4 14-33 15-96c1-61 26-98 85-98zm52 81c6-60-76-77-97-28-3 7-6 17-6 28h103" id="ba"/><path fill="#3a414a" d="M114-163C36-179 61-72 57 0H25l-1-190h30c1 12-1 29 2 39 6-27 23-49 58-41v29" id="bb"/><g id="h"><use transform="matrix(0.06172839506172839,0,0,0.06172839506172839,0,0)" xlink:href="#aU"/><use transform="matrix(0.06172839506172839,0,0,0.06172839506172839,15.987654320987653,0)" xlink:href="#aV"/><use transform="matrix(0.06172839506172839,0,0,0.06172839506172839,28.333333333333332,0)" xlink:href="#aW"/><use transform="matrix(0.06172839506172839,0,0,0.06172839506172839,39.44444444444444,0)" xlink:href="#aX"/><use transform="matrix(0.06172839506172839,0,0,0.06172839506172839,45.617283950617285,0)" xlink:href="#aY"/><use transform="matrix(0.06172839506172839,0,0,0.06172839506172839,57.96296296296296,0)" xlink:href="#aZ"/><use transform="matrix(0.06172839506172839,0,0,0.06172839506172839,76.41975308641975,0)" xlink:href="#ba"/><use transform="matrix(0.06172839506172839,0,0,0.06172839506172839,88.76543209876543,0)" xlink:href="#bb"/></g><path fill="#3a414a" d="M190 0L58-211 59 0H30v-248h39L202-35l-2-213h31V0h-41" id="bc"/><path fill="#3a414a" d="M141-36C126-15 110 5 73 4 37 3 15-17 15-53c-1-64 63-63 125-63 3-35-9-54-41-54-24 1-41 7-42 31l-33-3c5-37 33-52 76-52 45 0 72 20 72 64v82c-1 20 7 32 28 27v20c-31 9-61-2-59-35zM48-53c0 20 12 33 32 33 41-3 63-29 60-74-43 2-92-5-92 41" id="bd"/><g id="i"><use transform="matrix(0.06172839506172839,0,0,0.06172839506172839,0,0)" xlink:href="#bc"/><use transform="matrix(0.06172839506172839,0,0,0.06172839506172839,15.987654320987653,0)" xlink:href="#bd"/><use transform="matrix(0.06172839506172839,0,0,0.06172839506172839,28.333333333333332,0)" xlink:href="#aZ"/><use transform="matrix(0.06172839506172839,0,0,0.06172839506172839,46.79012345679012,0)" xlink:href="#ba"/><path fill="#3a414a" d="M-1.1 1.54h61.35v1.63H-1.1z"/></g><path d="M205 0l-28-72H64L36 0H1l101-248h38L239 0h-34zm-38-99l-47-123c-12 45-31 82-46 123h93" id="be"/><path d="M85-194c31 0 48 13 60 33l-1-100h32l1 261h-30c-2-10 0-23-3-31C134-8 116 4 85 4 32 4 16-35 15-94c0-66 23-100 70-100zm9 24c-40 0-46 34-46 75 0 40 6 74 45 74 42 0 51-32 51-76 0-42-9-74-50-73" id="bf"/><path d="M114-163C36-179 61-72 57 0H25l-1-190h30c1 12-1 29 2 39 6-27 23-49 58-41v29" id="bg"/><path d="M100-194c63 0 86 42 84 106H49c0 40 14 67 53 68 26 1 43-12 49-29l28 8c-11 28-37 45-77 45C44 4 14-33 15-96c1-61 26-98 85-98zm52 81c6-60-76-77-97-28-3 7-6 17-6 28h103" id="bh"/><path d="M135-143c-3-34-86-38-87 0 15 53 115 12 119 90S17 21 10-45l28-5c4 36 97 45 98 0-10-56-113-15-118-90-4-57 82-63 122-42 12 7 21 19 24 35" id="bi"/><g id="j"><use transform="matrix(0.05,0,0,0.05,0,0)" xlink:href="#be"/><use transform="matrix(0.05,0,0,0.05,12,0)" xlink:href="#bf"/><use transform="matrix(0.05,0,0,0.05,22,0)" xlink:href="#bf"/><use transform="matrix(0.05,0,0,0.05,32,0)" xlink:href="#bg"/><use transform="matrix(0.05,0,0,0.05,37.95,0)" xlink:href="#bh"/><use transform="matrix(0.05,0,0,0.05,47.95,0)" xlink:href="#bi"/><use transform="matrix(0.05,0,0,0.05,56.95,0)" xlink:href="#bi"/></g><path d="M212-179c-10-28-35-45-73-45-59 0-87 40-87 99 0 60 29 101 89 101 43 0 62-24 78-52l27 14C228-24 195 4 139 4 59 4 22-46 18-125c-6-104 99-153 187-111 19 9 31 26 39 46" id="bj"/><path d="M141-36C126-15 110 5 73 4 37 3 15-17 15-53c-1-64 63-63 125-63 3-35-9-54-41-54-24 1-41 7-42 31l-33-3c5-37 33-52 76-52 45 0 72 20 72 64v82c-1 20 7 32 28 27v20c-31 9-61-2-59-35zM48-53c0 20 12 33 32 33 41-3 63-29 60-74-43 2-92-5-92 41" id="bk"/><path d="M59-47c-2 24 18 29 38 22v24C64 9 27 4 27-40v-127H5v-23h24l9-43h21v43h35v23H59v120" id="bl"/><path d="M177-190C167-65 218 103 67 71c-23-6-38-20-44-43l32-5c15 47 100 32 89-28v-30C133-14 115 1 83 1 29 1 15-40 15-95c0-56 16-97 71-98 29-1 48 16 59 35 1-10 0-23 2-32h30zM94-22c36 0 50-32 50-73 0-42-14-75-50-75-39 0-46 34-46 75s6 73 46 73" id="bm"/><path d="M100-194c62-1 85 37 85 99 1 63-27 99-86 99S16-35 15-95c0-66 28-99 85-99zM99-20c44 1 53-31 53-75 0-43-8-75-51-75s-53 32-53 75 10 74 51 75" id="bn"/><path d="M179-190L93 31C79 59 56 82 12 73V49c39 6 53-20 64-50L1-190h34L92-34l54-156h33" id="bo"/><g id="k"><use transform="matrix(0.05,0,0,0.05,0,0)" xlink:href="#bj"/><use transform="matrix(0.05,0,0,0.05,12.950000000000001,0)" xlink:href="#bk"/><use transform="matrix(0.05,0,0,0.05,22.950000000000003,0)" xlink:href="#bl"/><use transform="matrix(0.05,0,0,0.05,27.950000000000003,0)" xlink:href="#bh"/><use transform="matrix(0.05,0,0,0.05,37.95,0)" xlink:href="#bm"/><use transform="matrix(0.05,0,0,0.05,47.95,0)" xlink:href="#bn"/><use transform="matrix(0.05,0,0,0.05,57.95,0)" xlink:href="#bg"/><use transform="matrix(0.05,0,0,0.05,63.900000000000006,0)" xlink:href="#bo"/></g><path fill="#3a414a" d="M140-251c81 0 123 46 123 126C263-46 219 4 140 4 59 4 17-45 17-125s42-126 123-126zm0 227c63 0 89-41 89-101s-29-99-89-99c-61 0-89 39-89 99S79-25 140-24" id="bp"/><path fill="#3a414a" d="M85-194c31 0 48 13 60 33l-1-100h32l1 261h-30c-2-10 0-23-3-31C134-8 116 4 85 4 32 4 16-35 15-94c0-66 23-100 70-100zm9 24c-40 0-46 34-46 75 0 40 6 74 45 74 42 0 51-32 51-76 0-42-9-74-50-73" id="bq"/><g id="l"><use transform="matrix(0.06172839506172839,0,0,0.06172839506172839,0,0)" xlink:href="#bp"/><use transform="matrix(0.06172839506172839,0,0,0.06172839506172839,17.28395061728395,0)" xlink:href="#bb"/><use transform="matrix(0.06172839506172839,0,0,0.06172839506172839,24.629629629629626,0)" xlink:href="#bq"/><use transform="matrix(0.06172839506172839,0,0,0.06172839506172839,36.9753086419753,0)" xlink:href="#ba"/><use transform="matrix(0.06172839506172839,0,0,0.06172839506172839,49.32098765432098,0)" xlink:href="#bb"/></g><path fill="#3a414a" d="M205 0l-28-72H64L36 0H1l101-248h38L239 0h-34zm-38-99l-47-123c-12 45-31 82-46 123h93" id="br"/><path fill="#3a414a" d="M115-194c53 0 69 39 70 98 0 66-23 100-70 100C84 3 66-7 56-30L54 0H23l1-261h32v101c10-23 28-34 59-34zm-8 174c40 0 45-34 45-75 0-40-5-75-45-74-42 0-51 32-51 76 0 43 10 73 51 73" id="bs"/><path fill="#3a414a" d="M24 0v-261h32V0H24" id="bt"/><path fill="#3a414a" d="M179-190L93 31C79 59 56 82 12 73V49c39 6 53-20 64-50L1-190h34L92-34l54-156h33" id="bu"/><g id="m"><use transform="matrix(0.06172839506172839,0,0,0.06172839506172839,0,0)" xlink:href="#br"/><use transform="matrix(0.06172839506172839,0,0,0.06172839506172839,14.814814814814813,0)" xlink:href="#aW"/><use transform="matrix(0.06172839506172839,0,0,0.06172839506172839,25.925925925925924,0)" xlink:href="#aW"/><use transform="matrix(0.06172839506172839,0,0,0.06172839506172839,37.03703703703704,0)" xlink:href="#ba"/><use transform="matrix(0.06172839506172839,0,0,0.06172839506172839,49.382716049382715,0)" xlink:href="#aZ"/><use transform="matrix(0.06172839506172839,0,0,0.06172839506172839,67.8395061728395,0)" xlink:href="#bs"/><use transform="matrix(0.06172839506172839,0,0,0.06172839506172839,80.18518518518519,0)" xlink:href="#bt"/><use transform="matrix(0.06172839506172839,0,0,0.06172839506172839,85.06172839506173,0)" xlink:href="#bu"/></g><path fill="#3a414a" d="M33 0v-248h34V0H33" id="bv"/><path fill="#3a414a" d="M30-248c118-7 216 8 213 122C240-48 200 0 122 0H30v-248zM63-27c89 8 146-16 146-99s-60-101-146-95v194" id="bw"/><g id="n"><use transform="matrix(0.06172839506172839,0,0,0.06172839506172839,0,0)" xlink:href="#br"/><use transform="matrix(0.06172839506172839,0,0,0.06172839506172839,14.814814814814813,0)" xlink:href="#aW"/><use transform="matrix(0.06172839506172839,0,0,0.06172839506172839,25.925925925925924,0)" xlink:href="#aW"/><use transform="matrix(0.06172839506172839,0,0,0.06172839506172839,37.03703703703704,0)" xlink:href="#ba"/><use transform="matrix(0.06172839506172839,0,0,0.06172839506172839,49.382716049382715,0)" xlink:href="#aZ"/><use transform="matrix(0.06172839506172839,0,0,0.06172839506172839,67.8395061728395,0)" xlink:href="#bs"/><use transform="matrix(0.06172839506172839,0,0,0.06172839506172839,80.18518518518519,0)" xlink:href="#bt"/><use transform="matrix(0.06172839506172839,0,0,0.06172839506172839,85.06172839506173,0)" xlink:href="#bu"/><use transform="matrix(0.06172839506172839,0,0,0.06172839506172839,96.17283950617285,0)" xlink:href="#bv"/><use transform="matrix(0.06172839506172839,0,0,0.06172839506172839,102.34567901234568,0)" xlink:href="#bw"/><path fill="#3a414a" d="M-1.1 1.54h120.55v1.63H-1.1z"/></g><path d="M30-248c118-7 216 8 213 122C240-48 200 0 122 0H30v-248zM63-27c89 8 146-16 146-99s-60-101-146-95v194" id="bx"/><path d="M140-251c81 0 123 46 123 126C263-46 219 4 140 4 59 4 17-45 17-125s42-126 123-126zm0 227c63 0 89-41 89-101s-29-99-89-99c-61 0-89 39-89 99S79-25 140-24" id="by"/><g id="o"><use transform="matrix(0.05,0,0,0.05,0,0)" xlink:href="#bx"/><use transform="matrix(0.05,0,0,0.05,12.950000000000001,0)" xlink:href="#bk"/><use transform="matrix(0.05,0,0,0.05,22.950000000000003,0)" xlink:href="#bl"/><use transform="matrix(0.05,0,0,0.05,27.950000000000003,0)" xlink:href="#bh"/><use transform="matrix(0.05,0,0,0.05,37.95,0)" xlink:href="#by"/><use transform="matrix(0.05,0,0,0.05,51.95,0)" xlink:href="#bg"/><use transform="matrix(0.05,0,0,0.05,57.900000000000006,0)" xlink:href="#bf"/><use transform="matrix(0.05,0,0,0.05,67.9,0)" xlink:href="#bh"/><use transform="matrix(0.05,0,0,0.05,77.9,0)" xlink:href="#bg"/><use transform="matrix(0.05,0,0,0.05,83.85000000000001,0)" xlink:href="#bh"/><use transform="matrix(0.05,0,0,0.05,93.85000000000001,0)" xlink:href="#bf"/></g><path d="M210-169c-67 3-38 105-44 169h-31v-121c0-29-5-50-35-48C34-165 62-65 56 0H25l-1-190h30c1 10-1 24 2 32 10-44 99-50 107 0 11-21 27-35 58-36 85-2 47 119 55 194h-31v-121c0-29-5-49-35-48" id="bz"/><path d="M115-194c53 0 69 39 70 98 0 66-23 100-70 100C84 3 66-7 56-30L54 0H23l1-261h32v101c10-23 28-34 59-34zm-8 174c40 0 45-34 45-75 0-40-5-75-45-74-42 0-51 32-51 76 0 43 10 73 51 73" id="bA"/><path d="M24 0v-261h32V0H24" id="bB"/><path d="M24-231v-30h32v30H24zM24 0v-190h32V0H24" id="bC"/><g id="p"><use transform="matrix(0.05,0,0,0.05,0,0)" xlink:href="#be"/><use transform="matrix(0.05,0,0,0.05,12,0)" xlink:href="#bi"/><use transform="matrix(0.05,0,0,0.05,21,0)" xlink:href="#bi"/><use transform="matrix(0.05,0,0,0.05,30,0)" xlink:href="#bh"/><use transform="matrix(0.05,0,0,0.05,40,0)" xlink:href="#bz"/><use transform="matrix(0.05,0,0,0.05,54.95,0)" xlink:href="#bA"/><use transform="matrix(0.05,0,0,0.05,64.95,0)" xlink:href="#bB"/><use transform="matrix(0.05,0,0,0.05,68.9,0)" xlink:href="#bo"/><use transform="matrix(0.05,0,0,0.05,77.9,0)" xlink:href="#bx"/><use transform="matrix(0.05,0,0,0.05,90.85000000000001,0)" xlink:href="#bh"/><use transform="matrix(0.05,0,0,0.05,100.85000000000001,0)" xlink:href="#bl"/><use transform="matrix(0.05,0,0,0.05,105.85000000000001,0)" xlink:href="#bk"/><use transform="matrix(0.05,0,0,0.05,115.85000000000001,0)" xlink:href="#bC"/><use transform="matrix(0.05,0,0,0.05,119.80000000000001,0)" xlink:href="#bB"/><use transform="matrix(0.05,0,0,0.05,123.75,0)" xlink:href="#bi"/></g><path fill="#3a414a" d="M30-248c87 1 191-15 191 75 0 78-77 80-158 76V0H30v-248zm33 125c57 0 124 11 124-50 0-59-68-47-124-48v98" id="bD"/><path fill="#3a414a" d="M96-169c-40 0-48 33-48 73s9 75 48 75c24 0 41-14 43-38l32 2c-6 37-31 61-74 61-59 0-76-41-82-99-10-93 101-131 147-64 4 7 5 14 7 22l-32 3c-4-21-16-35-41-35" id="bE"/><g id="q"><use transform="matrix(0.06172839506172839,0,0,0.06172839506172839,0,0)" xlink:href="#bD"/><use transform="matrix(0.06172839506172839,0,0,0.06172839506172839,14.814814814814813,0)" xlink:href="#bb"/><use transform="matrix(0.06172839506172839,0,0,0.06172839506172839,22.160493827160494,0)" xlink:href="#aY"/><use transform="matrix(0.06172839506172839,0,0,0.06172839506172839,34.50617283950617,0)" xlink:href="#bE"/><use transform="matrix(0.06172839506172839,0,0,0.06172839506172839,45.61728395061728,0)" xlink:href="#ba"/><use transform="matrix(0.06172839506172839,0,0,0.06172839506172839,57.962962962962955,0)" xlink:href="#aW"/><use transform="matrix(0.06172839506172839,0,0,0.06172839506172839,69.07407407407406,0)" xlink:href="#aW"/><use transform="matrix(0.06172839506172839,0,0,0.06172839506172839,80.18518518518518,0)" xlink:href="#ba"/><use transform="matrix(0.06172839506172839,0,0,0.06172839506172839,92.53086419753086,0)" xlink:href="#aW"/></g><g id="r"><use transform="matrix(0.06172839506172839,0,0,0.06172839506172839,0,0)" xlink:href="#bD"/><use transform="matrix(0.06172839506172839,0,0,0.06172839506172839,14.814814814814813,0)" xlink:href="#bb"/><use transform="matrix(0.06172839506172839,0,0,0.06172839506172839,22.160493827160494,0)" xlink:href="#aY"/><use transform="matrix(0.06172839506172839,0,0,0.06172839506172839,34.50617283950617,0)" xlink:href="#bE"/><use transform="matrix(0.06172839506172839,0,0,0.06172839506172839,45.61728395061728,0)" xlink:href="#ba"/><use transform="matrix(0.06172839506172839,0,0,0.06172839506172839,57.962962962962955,0)" xlink:href="#aW"/><use transform="matrix(0.06172839506172839,0,0,0.06172839506172839,69.07407407407406,0)" xlink:href="#aW"/><use transform="matrix(0.06172839506172839,0,0,0.06172839506172839,80.18518518518518,0)" xlink:href="#bv"/><use transform="matrix(0.06172839506172839,0,0,0.06172839506172839,86.35802469135801,0)" xlink:href="#bw"/><path fill="#3a414a" d="M-1.1 1.54h104.56v1.63H-1.1z"/></g><path d="M30-248c87 1 191-15 191 75 0 78-77 80-158 76V0H30v-248zm33 125c57 0 124 11 124-50 0-59-68-47-124-48v98" id="bF"/><path d="M96-169c-40 0-48 33-48 73s9 75 48 75c24 0 41-14 43-38l32 2c-6 37-31 61-74 61-59 0-76-41-82-99-10-93 101-131 147-64 4 7 5 14 7 22l-32 3c-4-21-16-35-41-35" id="bG"/><g id="s"><use transform="matrix(0.05,0,0,0.05,0,0)" xlink:href="#bF"/><use transform="matrix(0.05,0,0,0.05,12,0)" xlink:href="#bg"/><use transform="matrix(0.05,0,0,0.05,17.95,0)" xlink:href="#bn"/><use transform="matrix(0.05,0,0,0.05,27.950000000000003,0)" xlink:href="#bG"/><use transform="matrix(0.05,0,0,0.05,36.95,0)" xlink:href="#bh"/><use transform="matrix(0.05,0,0,0.05,46.95,0)" xlink:href="#bi"/><use transform="matrix(0.05,0,0,0.05,55.95,0)" xlink:href="#bi"/><use transform="matrix(0.05,0,0,0.05,64.95,0)" xlink:href="#bx"/><use transform="matrix(0.05,0,0,0.05,77.9,0)" xlink:href="#bk"/><use transform="matrix(0.05,0,0,0.05,87.9,0)" xlink:href="#bl"/><use transform="matrix(0.05,0,0,0.05,92.9,0)" xlink:href="#bk"/></g><path fill="#3a414a" d="M115-194c55 1 70 41 70 98S169 2 115 4C84 4 66-9 55-30l1 105H24l-1-265h31l2 30c10-21 28-34 59-34zm-8 174c40 0 45-34 45-75s-6-73-45-74c-42 0-51 32-51 76 0 43 10 73 51 73" id="bH"/><path fill="#3a414a" d="M117-194c89-4 53 116 60 194h-32v-121c0-31-8-49-39-48C34-167 62-67 57 0H25l-1-190h30c1 10-1 24 2 32 11-22 29-35 61-36" id="bI"/><g id="t"><use transform="matrix(0.06172839506172839,0,0,0.06172839506172839,0,0)" xlink:href="#bw"/><use transform="matrix(0.06172839506172839,0,0,0.06172839506172839,15.987654320987653,0)" xlink:href="#ba"/><use transform="matrix(0.06172839506172839,0,0,0.06172839506172839,28.333333333333332,0)" xlink:href="#bH"/><use transform="matrix(0.06172839506172839,0,0,0.06172839506172839,40.67901234567901,0)" xlink:href="#bd"/><use transform="matrix(0.06172839506172839,0,0,0.06172839506172839,53.02469135802469,0)" xlink:href="#bb"/><use transform="matrix(0.06172839506172839,0,0,0.06172839506172839,60.37037037037037,0)" xlink:href="#aX"/><use transform="matrix(0.06172839506172839,0,0,0.06172839506172839,66.5432098765432,0)" xlink:href="#aZ"/><use transform="matrix(0.06172839506172839,0,0,0.06172839506172839,84.99999999999999,0)" xlink:href="#ba"/><use transform="matrix(0.06172839506172839,0,0,0.06172839506172839,97.34567901234567,0)" xlink:href="#bI"/><use transform="matrix(0.06172839506172839,0,0,0.06172839506172839,109.69135802469135,0)" xlink:href="#aX"/></g><g id="u"><use transform="matrix(0.06172839506172839,0,0,0.06172839506172839,0,0)" xlink:href="#bw"/><use transform="matrix(0.06172839506172839,0,0,0.06172839506172839,15.987654320987653,0)" xlink:href="#ba"/><use transform="matrix(0.06172839506172839,0,0,0.06172839506172839,28.333333333333332,0)" xlink:href="#bH"/><use transform="matrix(0.06172839506172839,0,0,0.06172839506172839,40.67901234567901,0)" xlink:href="#bd"/><use transform="matrix(0.06172839506172839,0,0,0.06172839506172839,53.02469135802469,0)" xlink:href="#bb"/><use transform="matrix(0.06172839506172839,0,0,0.06172839506172839,60.37037037037037,0)" xlink:href="#aX"/><use transform="matrix(0.06172839506172839,0,0,0.06172839506172839,66.5432098765432,0)" xlink:href="#aZ"/><use transform="matrix(0.06172839506172839,0,0,0.06172839506172839,84.99999999999999,0)" xlink:href="#ba"/><use transform="matrix(0.06172839506172839,0,0,0.06172839506172839,97.34567901234567,0)" xlink:href="#bI"/><use transform="matrix(0.06172839506172839,0,0,0.06172839506172839,109.69135802469135,0)" xlink:href="#aX"/><use transform="matrix(0.06172839506172839,0,0,0.06172839506172839,115.86419753086419,0)" xlink:href="#bc"/><use transform="matrix(0.06172839506172839,0,0,0.06172839506172839,131.85185185185185,0)" xlink:href="#aV"/><use transform="matrix(0.06172839506172839,0,0,0.06172839506172839,144.19753086419752,0)" xlink:href="#aZ"/><use transform="matrix(0.06172839506172839,0,0,0.06172839506172839,162.6543209876543,0)" xlink:href="#bs"/><use transform="matrix(0.06172839506172839,0,0,0.06172839506172839,174.99999999999997,0)" xlink:href="#ba"/><use transform="matrix(0.06172839506172839,0,0,0.06172839506172839,187.34567901234564,0)" xlink:href="#bb"/><path fill="#3a414a" d="M-1.1 1.54h196.9v1.63H-1.1z"/></g><path d="M115-194c55 1 70 41 70 98S169 2 115 4C84 4 66-9 55-30l1 105H24l-1-265h31l2 30c10-21 28-34 59-34zm-8 174c40 0 45-34 45-75s-6-73-45-74c-42 0-51 32-51 76 0 43 10 73 51 73" id="bJ"/><path d="M117-194c89-4 53 116 60 194h-32v-121c0-31-8-49-39-48C34-167 62-67 57 0H25l-1-190h30c1 10-1 24 2 32 11-22 29-35 61-36" id="bK"/><g id="v"><use transform="matrix(0.05,0,0,0.05,0,0)" xlink:href="#bx"/><use transform="matrix(0.05,0,0,0.05,12.950000000000001,0)" xlink:href="#bh"/><use transform="matrix(0.05,0,0,0.05,22.950000000000003,0)" xlink:href="#bJ"/><use transform="matrix(0.05,0,0,0.05,32.95,0)" xlink:href="#bk"/><use transform="matrix(0.05,0,0,0.05,42.95,0)" xlink:href="#bg"/><use transform="matrix(0.05,0,0,0.05,48.900000000000006,0)" xlink:href="#bl"/><use transform="matrix(0.05,0,0,0.05,53.900000000000006,0)" xlink:href="#bz"/><use transform="matrix(0.05,0,0,0.05,68.85000000000001,0)" xlink:href="#bh"/><use transform="matrix(0.05,0,0,0.05,78.85000000000001,0)" xlink:href="#bK"/><use transform="matrix(0.05,0,0,0.05,88.85000000000001,0)" xlink:href="#bl"/><use transform="matrix(0.05,0,0,0.05,93.85000000000001,0)" xlink:href="#bx"/><use transform="matrix(0.05,0,0,0.05,106.80000000000001,0)" xlink:href="#bk"/><use transform="matrix(0.05,0,0,0.05,116.80000000000001,0)" xlink:href="#bl"/><use transform="matrix(0.05,0,0,0.05,121.80000000000001,0)" xlink:href="#bk"/></g><path fill="#3a414a" d="M24-231v-30h32v30H24zM24 0v-190h32V0H24" id="bL"/><path fill="#3a414a" d="M101-234c-31-9-42 10-38 44h38v23H63V0H32v-167H5v-23h27c-7-52 17-82 69-68v24" id="bM"/><g id="w"><use transform="matrix(0.06172839506172839,0,0,0.06172839506172839,0,0)" xlink:href="#aU"/><use transform="matrix(0.06172839506172839,0,0,0.06172839506172839,15.987654320987653,0)" xlink:href="#bt"/><use transform="matrix(0.06172839506172839,0,0,0.06172839506172839,20.864197530864196,0)" xlink:href="#bd"/><use transform="matrix(0.06172839506172839,0,0,0.06172839506172839,33.20987654320987,0)" xlink:href="#aW"/><use transform="matrix(0.06172839506172839,0,0,0.06172839506172839,44.32098765432099,0)" xlink:href="#aW"/><use transform="matrix(0.06172839506172839,0,0,0.06172839506172839,55.4320987654321,0)" xlink:href="#bL"/><use transform="matrix(0.06172839506172839,0,0,0.06172839506172839,60.308641975308646,0)" xlink:href="#bM"/><use transform="matrix(0.06172839506172839,0,0,0.06172839506172839,66.48148148148148,0)" xlink:href="#bL"/><use transform="matrix(0.06172839506172839,0,0,0.06172839506172839,71.35802469135803,0)" xlink:href="#ba"/><use transform="matrix(0.06172839506172839,0,0,0.06172839506172839,83.70370370370371,0)" xlink:href="#bq"/></g><path fill="#3a414a" d="M127-220V0H93v-220H8v-28h204v28h-85" id="bN"/><g id="x"><use transform="matrix(0.06172839506172839,0,0,0.06172839506172839,0,0)" xlink:href="#bD"/><use transform="matrix(0.06172839506172839,0,0,0.06172839506172839,14.814814814814813,0)" xlink:href="#bb"/><use transform="matrix(0.06172839506172839,0,0,0.06172839506172839,22.160493827160494,0)" xlink:href="#aY"/><use transform="matrix(0.06172839506172839,0,0,0.06172839506172839,34.50617283950617,0)" xlink:href="#bE"/><use transform="matrix(0.06172839506172839,0,0,0.06172839506172839,45.61728395061728,0)" xlink:href="#ba"/><use transform="matrix(0.06172839506172839,0,0,0.06172839506172839,57.962962962962955,0)" xlink:href="#aW"/><use transform="matrix(0.06172839506172839,0,0,0.06172839506172839,69.07407407407406,0)" xlink:href="#aW"/><use transform="matrix(0.06172839506172839,0,0,0.06172839506172839,80.18518518518518,0)" xlink:href="#bN"/><use transform="matrix(0.06172839506172839,0,0,0.06172839506172839,92.46913580246913,0)" xlink:href="#bu"/><use transform="matrix(0.06172839506172839,0,0,0.06172839506172839,103.58024691358024,0)" xlink:href="#bH"/><use transform="matrix(0.06172839506172839,0,0,0.06172839506172839,115.92592592592592,0)" xlink:href="#ba"/></g><g id="y"><use transform="matrix(0.06172839506172839,0,0,0.06172839506172839,0,0)" xlink:href="#bD"/><use transform="matrix(0.06172839506172839,0,0,0.06172839506172839,14.814814814814813,0)" xlink:href="#bb"/><use transform="matrix(0.06172839506172839,0,0,0.06172839506172839,22.160493827160494,0)" xlink:href="#aY"/><use transform="matrix(0.06172839506172839,0,0,0.06172839506172839,34.50617283950617,0)" xlink:href="#bE"/><use transform="matrix(0.06172839506172839,0,0,0.06172839506172839,45.61728395061728,0)" xlink:href="#ba"/><use transform="matrix(0.06172839506172839,0,0,0.06172839506172839,57.962962962962955,0)" xlink:href="#aW"/><use transform="matrix(0.06172839506172839,0,0,0.06172839506172839,69.07407407407406,0)" xlink:href="#aW"/><use transform="matrix(0.06172839506172839,0,0,0.06172839506172839,80.18518518518518,0)" xlink:href="#bN"/><use transform="matrix(0.06172839506172839,0,0,0.06172839506172839,92.46913580246913,0)" xlink:href="#bu"/><use transform="matrix(0.06172839506172839,0,0,0.06172839506172839,103.58024691358024,0)" xlink:href="#bH"/><use transform="matrix(0.06172839506172839,0,0,0.06172839506172839,115.92592592592592,0)" xlink:href="#ba"/><use transform="matrix(0.06172839506172839,0,0,0.06172839506172839,128.2716049382716,0)" xlink:href="#bv"/><use transform="matrix(0.06172839506172839,0,0,0.06172839506172839,134.44444444444443,0)" xlink:href="#bw"/><path fill="#3a414a" d="M-1.1 1.54h152.64v1.63H-1.1z"/></g><g id="z"><use transform="matrix(0.06172839506172839,0,0,0.06172839506172839,0,0)" xlink:href="#bD"/><use transform="matrix(0.06172839506172839,0,0,0.06172839506172839,14.814814814814813,0)" xlink:href="#bb"/><use transform="matrix(0.06172839506172839,0,0,0.06172839506172839,22.160493827160494,0)" xlink:href="#aY"/><use transform="matrix(0.06172839506172839,0,0,0.06172839506172839,34.50617283950617,0)" xlink:href="#bE"/><use transform="matrix(0.06172839506172839,0,0,0.06172839506172839,45.61728395061728,0)" xlink:href="#ba"/><use transform="matrix(0.06172839506172839,0,0,0.06172839506172839,57.962962962962955,0)" xlink:href="#aW"/><use transform="matrix(0.06172839506172839,0,0,0.06172839506172839,69.07407407407406,0)" xlink:href="#aW"/><use transform="matrix(0.06172839506172839,0,0,0.06172839506172839,80.18518518518518,0)" xlink:href="#bN"/><use transform="matrix(0.06172839506172839,0,0,0.06172839506172839,92.46913580246913,0)" xlink:href="#bu"/><use transform="matrix(0.06172839506172839,0,0,0.06172839506172839,103.58024691358024,0)" xlink:href="#bH"/><use transform="matrix(0.06172839506172839,0,0,0.06172839506172839,115.92592592592592,0)" xlink:href="#ba"/><use transform="matrix(0.06172839506172839,0,0,0.06172839506172839,128.2716049382716,0)" xlink:href="#bc"/><use transform="matrix(0.06172839506172839,0,0,0.06172839506172839,144.25925925925924,0)" xlink:href="#bd"/><use transform="matrix(0.06172839506172839,0,0,0.06172839506172839,156.6049382716049,0)" xlink:href="#aZ"/><use transform="matrix(0.06172839506172839,0,0,0.06172839506172839,175.0617283950617,0)" xlink:href="#ba"/></g><path fill="#3a414a" d="M185-189c-5-48-123-54-124 2 14 75 158 14 163 119 3 78-121 87-175 55-17-10-28-26-33-46l33-7c5 56 141 63 141-1 0-78-155-14-162-118-5-82 145-84 179-34 5 7 8 16 11 25" id="bO"/><path fill="#3a414a" d="M108 0H70L1-190h34L89-25l56-165h34" id="bP"/><g id="A"><use transform="matrix(0.06172839506172839,0,0,0.06172839506172839,0,0)" xlink:href="#bO"/><use transform="matrix(0.06172839506172839,0,0,0.06172839506172839,14.814814814814813,0)" xlink:href="#aV"/><use transform="matrix(0.06172839506172839,0,0,0.06172839506172839,27.160493827160494,0)" xlink:href="#bH"/><use transform="matrix(0.06172839506172839,0,0,0.06172839506172839,39.50617283950617,0)" xlink:href="#ba"/><use transform="matrix(0.06172839506172839,0,0,0.06172839506172839,51.85185185185185,0)" xlink:href="#bb"/><use transform="matrix(0.06172839506172839,0,0,0.06172839506172839,59.197530864197525,0)" xlink:href="#bP"/><use transform="matrix(0.06172839506172839,0,0,0.06172839506172839,70.30864197530863,0)" xlink:href="#bL"/><use transform="matrix(0.06172839506172839,0,0,0.06172839506172839,75.18518518518518,0)" xlink:href="#aW"/><use transform="matrix(0.06172839506172839,0,0,0.06172839506172839,86.29629629629629,0)" xlink:href="#ba"/><use transform="matrix(0.06172839506172839,0,0,0.06172839506172839,98.64197530864197,0)" xlink:href="#aW"/></g><path fill="#3a414a" d="M153-248C145-148 188 4 80 4 36 3 13-21 6-62l32-5c4 25 16 42 43 43 27 0 39-20 39-49v-147H72v-28h81" id="bQ"/><g id="B"><use transform="matrix(0.06172839506172839,0,0,0.06172839506172839,0,0)" xlink:href="#bQ"/><use transform="matrix(0.06172839506172839,0,0,0.06172839506172839,11.11111111111111,0)" xlink:href="#aY"/><use transform="matrix(0.06172839506172839,0,0,0.06172839506172839,23.45679012345679,0)" xlink:href="#bs"/></g><g id="C"><use transform="matrix(0.06172839506172839,0,0,0.06172839506172839,0,0)" xlink:href="#bQ"/><use transform="matrix(0.06172839506172839,0,0,0.06172839506172839,11.11111111111111,0)" xlink:href="#aY"/><use transform="matrix(0.06172839506172839,0,0,0.06172839506172839,23.45679012345679,0)" xlink:href="#bs"/><use transform="matrix(0.06172839506172839,0,0,0.06172839506172839,35.80246913580247,0)" xlink:href="#bv"/><use transform="matrix(0.06172839506172839,0,0,0.06172839506172839,41.97530864197531,0)" xlink:href="#bw"/><path fill="#3a414a" d="M-1.1 1.54h60.18v1.63h-60.2z"/></g><path d="M153-248C145-148 188 4 80 4 36 3 13-21 6-62l32-5c4 25 16 42 43 43 27 0 39-20 39-49v-147H72v-28h81" id="bR"/><path d="M185-189c-5-48-123-54-124 2 14 75 158 14 163 119 3 78-121 87-175 55-17-10-28-26-33-46l33-7c5 56 141 63 141-1 0-78-155-14-162-118-5-82 145-84 179-34 5 7 8 16 11 25" id="bS"/><g id="D"><use transform="matrix(0.05,0,0,0.05,0,0)" xlink:href="#bR"/><use transform="matrix(0.05,0,0,0.05,9,0)" xlink:href="#bn"/><use transform="matrix(0.05,0,0,0.05,19,0)" xlink:href="#bA"/><use transform="matrix(0.05,0,0,0.05,29,0)" xlink:href="#bx"/><use transform="matrix(0.05,0,0,0.05,41.95,0)" xlink:href="#bk"/><use transform="matrix(0.05,0,0,0.05,51.95,0)" xlink:href="#bl"/><use transform="matrix(0.05,0,0,0.05,56.95,0)" xlink:href="#bh"/><use transform="matrix(0.05,0,0,0.05,66.95,0)" xlink:href="#bS"/><use transform="matrix(0.05,0,0,0.05,78.95,0)" xlink:href="#bl"/><use transform="matrix(0.05,0,0,0.05,83.95,0)" xlink:href="#bk"/><use transform="matrix(0.05,0,0,0.05,93.95,0)" xlink:href="#bg"/><use transform="matrix(0.05,0,0,0.05,99.9,0)" xlink:href="#bl"/></g><path d="M30 0v-248h187v28H63v79h144v27H63v87h162V0H30" id="bT"/><g id="E"><use transform="matrix(0.05,0,0,0.05,0,0)" xlink:href="#bR"/><use transform="matrix(0.05,0,0,0.05,9,0)" xlink:href="#bn"/><use transform="matrix(0.05,0,0,0.05,19,0)" xlink:href="#bA"/><use transform="matrix(0.05,0,0,0.05,29,0)" xlink:href="#bx"/><use transform="matrix(0.05,0,0,0.05,41.95,0)" xlink:href="#bk"/><use transform="matrix(0.05,0,0,0.05,51.95,0)" xlink:href="#bl"/><use transform="matrix(0.05,0,0,0.05,56.95,0)" xlink:href="#bh"/><use transform="matrix(0.05,0,0,0.05,66.95,0)" xlink:href="#bT"/><use transform="matrix(0.05,0,0,0.05,78.95,0)" xlink:href="#bK"/><use transform="matrix(0.05,0,0,0.05,88.95,0)" xlink:href="#bf"/></g><path d="M127-220V0H93v-220H8v-28h204v28h-85" id="bU"/><path d="M33 0v-248h34V0H33" id="bV"/><g id="F"><use transform="matrix(0.05,0,0,0.05,0,0)" xlink:href="#bR"/><use transform="matrix(0.05,0,0,0.05,9,0)" xlink:href="#bn"/><use transform="matrix(0.05,0,0,0.05,19,0)" xlink:href="#bA"/><use transform="matrix(0.05,0,0,0.05,29,0)" xlink:href="#bU"/><use transform="matrix(0.05,0,0,0.05,38.95,0)" xlink:href="#bo"/><use transform="matrix(0.05,0,0,0.05,47.95,0)" xlink:href="#bJ"/><use transform="matrix(0.05,0,0,0.05,57.95,0)" xlink:href="#bh"/><use transform="matrix(0.05,0,0,0.05,67.95,0)" xlink:href="#bV"/><use transform="matrix(0.05,0,0,0.05,72.95,0)" xlink:href="#bx"/></g><g id="G"><use transform="matrix(0.06172839506172839,0,0,0.06172839506172839,0,0)" xlink:href="#bQ"/><use transform="matrix(0.06172839506172839,0,0,0.06172839506172839,11.11111111111111,0)" xlink:href="#aY"/><use transform="matrix(0.06172839506172839,0,0,0.06172839506172839,23.45679012345679,0)" xlink:href="#bs"/><use transform="matrix(0.06172839506172839,0,0,0.06172839506172839,35.80246913580247,0)" xlink:href="#bN"/><use transform="matrix(0.06172839506172839,0,0,0.06172839506172839,48.08641975308642,0)" xlink:href="#bu"/><use transform="matrix(0.06172839506172839,0,0,0.06172839506172839,59.19753086419753,0)" xlink:href="#bH"/><use transform="matrix(0.06172839506172839,0,0,0.06172839506172839,71.54320987654322,0)" xlink:href="#ba"/></g><g id="H"><use transform="matrix(0.06172839506172839,0,0,0.06172839506172839,0,0)" xlink:href="#bQ"/><use transform="matrix(0.06172839506172839,0,0,0.06172839506172839,11.11111111111111,0)" xlink:href="#aY"/><use transform="matrix(0.06172839506172839,0,0,0.06172839506172839,23.45679012345679,0)" xlink:href="#bs"/><use transform="matrix(0.06172839506172839,0,0,0.06172839506172839,35.80246913580247,0)" xlink:href="#bN"/><use transform="matrix(0.06172839506172839,0,0,0.06172839506172839,48.08641975308642,0)" xlink:href="#bu"/><use transform="matrix(0.06172839506172839,0,0,0.06172839506172839,59.19753086419753,0)" xlink:href="#bH"/><use transform="matrix(0.06172839506172839,0,0,0.06172839506172839,71.54320987654322,0)" xlink:href="#ba"/><use transform="matrix(0.06172839506172839,0,0,0.06172839506172839,83.8888888888889,0)" xlink:href="#bv"/><use transform="matrix(0.06172839506172839,0,0,0.06172839506172839,90.06172839506173,0)" xlink:href="#bw"/><path fill="#3a414a" d="M-1.1 1.54h108.26v1.63H-1.1z"/></g><path d="M190 0L58-211 59 0H30v-248h39L202-35l-2-213h31V0h-41" id="bW"/><g id="I"><use transform="matrix(0.05,0,0,0.05,0,0)" xlink:href="#bR"/><use transform="matrix(0.05,0,0,0.05,9,0)" xlink:href="#bn"/><use transform="matrix(0.05,0,0,0.05,19,0)" xlink:href="#bA"/><use transform="matrix(0.05,0,0,0.05,29,0)" xlink:href="#bU"/><use transform="matrix(0.05,0,0,0.05,38.95,0)" xlink:href="#bo"/><use transform="matrix(0.05,0,0,0.05,47.95,0)" xlink:href="#bJ"/><use transform="matrix(0.05,0,0,0.05,57.95,0)" xlink:href="#bh"/><use transform="matrix(0.05,0,0,0.05,67.95,0)" xlink:href="#bW"/><use transform="matrix(0.05,0,0,0.05,80.9,0)" xlink:href="#bk"/><use transform="matrix(0.05,0,0,0.05,90.9,0)" xlink:href="#bz"/><use transform="matrix(0.05,0,0,0.05,105.85000000000001,0)" xlink:href="#bh"/></g><path fill="#3a414a" d="M63-220v92h138v28H63V0H30v-248h175v28H63" id="bX"/><g id="J"><use transform="matrix(0.06172839506172839,0,0,0.06172839506172839,0,0)" xlink:href="#bX"/><use transform="matrix(0.06172839506172839,0,0,0.06172839506172839,13.518518518518517,0)" xlink:href="#bL"/><use transform="matrix(0.06172839506172839,0,0,0.06172839506172839,18.39506172839506,0)" xlink:href="#aX"/><use transform="matrix(0.06172839506172839,0,0,0.06172839506172839,24.5679012345679,0)" xlink:href="#bv"/><use transform="matrix(0.06172839506172839,0,0,0.06172839506172839,30.740740740740737,0)" xlink:href="#bI"/><use transform="matrix(0.06172839506172839,0,0,0.06172839506172839,43.08641975308642,0)" xlink:href="#bM"/><use transform="matrix(0.06172839506172839,0,0,0.06172839506172839,49.25925925925926,0)" xlink:href="#aY"/></g><g id="K"><use transform="matrix(0.06172839506172839,0,0,0.06172839506172839,0,0)" xlink:href="#bX"/><use transform="matrix(0.06172839506172839,0,0,0.06172839506172839,13.518518518518517,0)" xlink:href="#bL"/><use transform="matrix(0.06172839506172839,0,0,0.06172839506172839,18.39506172839506,0)" xlink:href="#aX"/><use transform="matrix(0.06172839506172839,0,0,0.06172839506172839,24.5679012345679,0)" xlink:href="#bv"/><use transform="matrix(0.06172839506172839,0,0,0.06172839506172839,30.740740740740737,0)" xlink:href="#bw"/><path fill="#3a414a" d="M-1.1 1.54h48.94v1.63H-1.1z"/></g><path d="M63-220v92h138v28H63V0H30v-248h175v28H63" id="bY"/><g id="L"><use transform="matrix(0.05,0,0,0.05,0,0)" xlink:href="#bY"/><use transform="matrix(0.05,0,0,0.05,10.950000000000001,0)" xlink:href="#bC"/><use transform="matrix(0.05,0,0,0.05,14.9,0)" xlink:href="#bl"/><use transform="matrix(0.05,0,0,0.05,19.900000000000002,0)" xlink:href="#bU"/><use transform="matrix(0.05,0,0,0.05,29.85,0)" xlink:href="#bo"/><use transform="matrix(0.05,0,0,0.05,38.85,0)" xlink:href="#bJ"/><use transform="matrix(0.05,0,0,0.05,48.85,0)" xlink:href="#bh"/></g><g id="M"><use transform="matrix(0.06172839506172839,0,0,0.06172839506172839,0,0)" xlink:href="#bD"/><use transform="matrix(0.06172839506172839,0,0,0.06172839506172839,14.814814814814813,0)" xlink:href="#bd"/><use transform="matrix(0.06172839506172839,0,0,0.06172839506172839,27.160493827160494,0)" xlink:href="#bL"/><use transform="matrix(0.06172839506172839,0,0,0.06172839506172839,32.03703703703704,0)" xlink:href="#bI"/><use transform="matrix(0.06172839506172839,0,0,0.06172839506172839,44.382716049382715,0)" xlink:href="#aX"/><use transform="matrix(0.06172839506172839,0,0,0.06172839506172839,50.55555555555556,0)" xlink:href="#bv"/><use transform="matrix(0.06172839506172839,0,0,0.06172839506172839,56.7283950617284,0)" xlink:href="#bI"/><use transform="matrix(0.06172839506172839,0,0,0.06172839506172839,69.07407407407408,0)" xlink:href="#bM"/><use transform="matrix(0.06172839506172839,0,0,0.06172839506172839,75.24691358024691,0)" xlink:href="#aY"/></g><g id="N"><use transform="matrix(0.06172839506172839,0,0,0.06172839506172839,0,0)" xlink:href="#bD"/><use transform="matrix(0.06172839506172839,0,0,0.06172839506172839,14.814814814814813,0)" xlink:href="#bd"/><use transform="matrix(0.06172839506172839,0,0,0.06172839506172839,27.160493827160494,0)" xlink:href="#bL"/><use transform="matrix(0.06172839506172839,0,0,0.06172839506172839,32.03703703703704,0)" xlink:href="#bI"/><use transform="matrix(0.06172839506172839,0,0,0.06172839506172839,44.382716049382715,0)" xlink:href="#aX"/><use transform="matrix(0.06172839506172839,0,0,0.06172839506172839,50.55555555555556,0)" xlink:href="#bw"/><path fill="#3a414a" d="M-1.1 1.54h68.76v1.63H-1.1z"/></g><g id="O"><use transform="matrix(0.05,0,0,0.05,0,0)" xlink:href="#bF"/><use transform="matrix(0.05,0,0,0.05,12,0)" xlink:href="#bk"/><use transform="matrix(0.05,0,0,0.05,22,0)" xlink:href="#bC"/><use transform="matrix(0.05,0,0,0.05,25.950000000000003,0)" xlink:href="#bK"/><use transform="matrix(0.05,0,0,0.05,35.95,0)" xlink:href="#bl"/><use transform="matrix(0.05,0,0,0.05,40.95,0)" xlink:href="#bU"/><use transform="matrix(0.05,0,0,0.05,50.900000000000006,0)" xlink:href="#bo"/><use transform="matrix(0.05,0,0,0.05,59.900000000000006,0)" xlink:href="#bJ"/><use transform="matrix(0.05,0,0,0.05,69.9,0)" xlink:href="#bh"/></g><path d="M240 0l2-218c-23 76-54 145-80 218h-23L58-218 59 0H30v-248h44l77 211c21-75 51-140 76-211h43V0h-30" id="bZ"/><path d="M106-169C34-169 62-67 57 0H25v-261h32l-1 103c12-21 28-36 61-36 89 0 53 116 60 194h-32v-121c2-32-8-49-39-48" id="ca"/><g id="P"><use transform="matrix(0.05,0,0,0.05,0,0)" xlink:href="#bF"/><use transform="matrix(0.05,0,0,0.05,12,0)" xlink:href="#bk"/><use transform="matrix(0.05,0,0,0.05,22,0)" xlink:href="#bC"/><use transform="matrix(0.05,0,0,0.05,25.950000000000003,0)" xlink:href="#bK"/><use transform="matrix(0.05,0,0,0.05,35.95,0)" xlink:href="#bl"/><use transform="matrix(0.05,0,0,0.05,40.95,0)" xlink:href="#bZ"/><use transform="matrix(0.05,0,0,0.05,55.900000000000006,0)" xlink:href="#bh"/><use transform="matrix(0.05,0,0,0.05,65.9,0)" xlink:href="#bl"/><use transform="matrix(0.05,0,0,0.05,70.9,0)" xlink:href="#ca"/><use transform="matrix(0.05,0,0,0.05,80.9,0)" xlink:href="#bn"/><use transform="matrix(0.05,0,0,0.05,90.9,0)" xlink:href="#bf"/></g><g id="Q"><use transform="matrix(0.06172839506172839,0,0,0.06172839506172839,0,0)" xlink:href="#aU"/><use transform="matrix(0.06172839506172839,0,0,0.06172839506172839,15.987654320987653,0)" xlink:href="#aV"/><use transform="matrix(0.06172839506172839,0,0,0.06172839506172839,28.333333333333332,0)" xlink:href="#aX"/><use transform="matrix(0.06172839506172839,0,0,0.06172839506172839,34.50617283950617,0)" xlink:href="#bv"/><use transform="matrix(0.06172839506172839,0,0,0.06172839506172839,40.67901234567901,0)" xlink:href="#bI"/><use transform="matrix(0.06172839506172839,0,0,0.06172839506172839,53.02469135802469,0)" xlink:href="#bM"/><use transform="matrix(0.06172839506172839,0,0,0.06172839506172839,59.19753086419753,0)" xlink:href="#aY"/></g><g id="R"><use transform="matrix(0.06172839506172839,0,0,0.06172839506172839,0,0)" xlink:href="#aU"/><use transform="matrix(0.06172839506172839,0,0,0.06172839506172839,15.987654320987653,0)" xlink:href="#aV"/><use transform="matrix(0.06172839506172839,0,0,0.06172839506172839,28.333333333333332,0)" xlink:href="#aX"/><use transform="matrix(0.06172839506172839,0,0,0.06172839506172839,34.50617283950617,0)" xlink:href="#bv"/><use transform="matrix(0.06172839506172839,0,0,0.06172839506172839,40.67901234567901,0)" xlink:href="#bw"/><path fill="#3a414a" d="M-1.1 1.54h58.88v1.63h-58.9z"/></g><path d="M84 4C-5 8 30-112 23-190h32v120c0 31 7 50 39 49 72-2 45-101 50-169h31l1 190h-30c-1-10 1-25-2-33-11 22-28 36-60 37" id="cb"/><g id="S"><use transform="matrix(0.05,0,0,0.05,0,0)" xlink:href="#bj"/><use transform="matrix(0.05,0,0,0.05,12.950000000000001,0)" xlink:href="#cb"/><use transform="matrix(0.05,0,0,0.05,22.950000000000003,0)" xlink:href="#bl"/><use transform="matrix(0.05,0,0,0.05,27.950000000000003,0)" xlink:href="#bl"/><use transform="matrix(0.05,0,0,0.05,32.95,0)" xlink:href="#bC"/><use transform="matrix(0.05,0,0,0.05,36.900000000000006,0)" xlink:href="#bK"/><use transform="matrix(0.05,0,0,0.05,46.900000000000006,0)" xlink:href="#bm"/><use transform="matrix(0.05,0,0,0.05,56.900000000000006,0)" xlink:href="#bU"/><use transform="matrix(0.05,0,0,0.05,66.85000000000001,0)" xlink:href="#bo"/><use transform="matrix(0.05,0,0,0.05,75.85000000000001,0)" xlink:href="#bJ"/><use transform="matrix(0.05,0,0,0.05,85.85000000000001,0)" xlink:href="#bh"/></g><g id="T"><use transform="matrix(0.05,0,0,0.05,0,0)" xlink:href="#bj"/><use transform="matrix(0.05,0,0,0.05,12.950000000000001,0)" xlink:href="#cb"/><use transform="matrix(0.05,0,0,0.05,22.950000000000003,0)" xlink:href="#bl"/><use transform="matrix(0.05,0,0,0.05,27.950000000000003,0)" xlink:href="#bl"/><use transform="matrix(0.05,0,0,0.05,32.95,0)" xlink:href="#bC"/><use transform="matrix(0.05,0,0,0.05,36.900000000000006,0)" xlink:href="#bK"/><use transform="matrix(0.05,0,0,0.05,46.900000000000006,0)" xlink:href="#bm"/><use transform="matrix(0.05,0,0,0.05,56.900000000000006,0)" xlink:href="#bZ"/><use transform="matrix(0.05,0,0,0.05,71.85000000000001,0)" xlink:href="#bk"/><use transform="matrix(0.05,0,0,0.05,81.85000000000001,0)" xlink:href="#bG"/><use transform="matrix(0.05,0,0,0.05,90.85000000000001,0)" xlink:href="#ca"/><use transform="matrix(0.05,0,0,0.05,100.85000000000001,0)" xlink:href="#bC"/><use transform="matrix(0.05,0,0,0.05,104.80000000000001,0)" xlink:href="#bK"/><use transform="matrix(0.05,0,0,0.05,114.80000000000001,0)" xlink:href="#bh"/></g><path d="M30 0v-248h33v221h125V0H30" id="cc"/><g id="U"><use transform="matrix(0.05,0,0,0.05,0,0)" xlink:href="#cc"/><use transform="matrix(0.05,0,0,0.05,10,0)" xlink:href="#bk"/><use transform="matrix(0.05,0,0,0.05,20,0)" xlink:href="#bA"/><use transform="matrix(0.05,0,0,0.05,30,0)" xlink:href="#bn"/><use transform="matrix(0.05,0,0,0.05,40,0)" xlink:href="#bg"/><use transform="matrix(0.05,0,0,0.05,45.95,0)" xlink:href="#bU"/><use transform="matrix(0.05,0,0,0.05,56.25,0)" xlink:href="#bC"/><use transform="matrix(0.05,0,0,0.05,60.20000000000002,0)" xlink:href="#bz"/><use transform="matrix(0.05,0,0,0.05,75.15,0)" xlink:href="#bh"/></g><g id="V"><use transform="matrix(0.05,0,0,0.05,0,0)" xlink:href="#bj"/><use transform="matrix(0.05,0,0,0.05,12.950000000000001,0)" xlink:href="#bn"/><use transform="matrix(0.05,0,0,0.05,22.950000000000003,0)" xlink:href="#bB"/><use transform="matrix(0.05,0,0,0.05,26.900000000000002,0)" xlink:href="#bn"/><use transform="matrix(0.05,0,0,0.05,36.900000000000006,0)" xlink:href="#bg"/></g><path d="M137 0h-34L2-248h35l83 218 83-218h36" id="cd"/><g id="W"><use transform="matrix(0.05,0,0,0.05,0,0)" xlink:href="#cd"/><use transform="matrix(0.05,0,0,0.05,11,0)" xlink:href="#bn"/><use transform="matrix(0.05,0,0,0.05,21,0)" xlink:href="#bB"/><use transform="matrix(0.05,0,0,0.05,24.95,0)" xlink:href="#cb"/><use transform="matrix(0.05,0,0,0.05,34.95,0)" xlink:href="#bz"/><use transform="matrix(0.05,0,0,0.05,49.900000000000006,0)" xlink:href="#bh"/></g><g id="X"><use transform="matrix(0.05,0,0,0.05,0,0)" xlink:href="#bZ"/><use transform="matrix(0.05,0,0,0.05,14.950000000000001,0)" xlink:href="#bk"/><use transform="matrix(0.05,0,0,0.05,24.950000000000003,0)" xlink:href="#bG"/><use transform="matrix(0.05,0,0,0.05,33.95,0)" xlink:href="#ca"/><use transform="matrix(0.05,0,0,0.05,43.95,0)" xlink:href="#bC"/><use transform="matrix(0.05,0,0,0.05,47.900000000000006,0)" xlink:href="#bK"/><use transform="matrix(0.05,0,0,0.05,57.900000000000006,0)" xlink:href="#bh"/><use transform="matrix(0.05,0,0,0.05,67.9,0)" xlink:href="#bU"/><use transform="matrix(0.05,0,0,0.05,77.85000000000001,0)" xlink:href="#bo"/><use transform="matrix(0.05,0,0,0.05,86.85000000000001,0)" xlink:href="#bJ"/><use transform="matrix(0.05,0,0,0.05,96.85000000000001,0)" xlink:href="#bh"/></g><g id="Y"><use transform="matrix(0.05,0,0,0.05,0,0)" xlink:href="#bZ"/><use transform="matrix(0.05,0,0,0.05,14.950000000000001,0)" xlink:href="#bk"/><use transform="matrix(0.05,0,0,0.05,24.950000000000003,0)" xlink:href="#bl"/><use transform="matrix(0.05,0,0,0.05,29.950000000000003,0)" xlink:href="#bh"/><use transform="matrix(0.05,0,0,0.05,39.95,0)" xlink:href="#bg"/><use transform="matrix(0.05,0,0,0.05,45.900000000000006,0)" xlink:href="#bC"/><use transform="matrix(0.05,0,0,0.05,49.85000000000001,0)" xlink:href="#bk"/><use transform="matrix(0.05,0,0,0.05,59.85,0)" xlink:href="#bB"/></g><g id="Z"><use transform="matrix(0.06172839506172839,0,0,0.06172839506172839,0,0)" xlink:href="#br"/><use transform="matrix(0.06172839506172839,0,0,0.06172839506172839,14.814814814814813,0)" xlink:href="#bE"/><use transform="matrix(0.06172839506172839,0,0,0.06172839506172839,25.925925925925924,0)" xlink:href="#bE"/><use transform="matrix(0.06172839506172839,0,0,0.06172839506172839,37.03703703703704,0)" xlink:href="#aY"/><use transform="matrix(0.06172839506172839,0,0,0.06172839506172839,49.382716049382715,0)" xlink:href="#aV"/><use transform="matrix(0.06172839506172839,0,0,0.06172839506172839,61.72839506172839,0)" xlink:href="#bI"/><use transform="matrix(0.06172839506172839,0,0,0.06172839506172839,74.07407407407408,0)" xlink:href="#aX"/></g><g id="aa"><use transform="matrix(0.06172839506172839,0,0,0.06172839506172839,0,0)" xlink:href="#br"/><use transform="matrix(0.06172839506172839,0,0,0.06172839506172839,14.814814814814813,0)" xlink:href="#bE"/><use transform="matrix(0.06172839506172839,0,0,0.06172839506172839,25.925925925925924,0)" xlink:href="#bE"/><use transform="matrix(0.06172839506172839,0,0,0.06172839506172839,37.03703703703704,0)" xlink:href="#aY"/><use transform="matrix(0.06172839506172839,0,0,0.06172839506172839,49.382716049382715,0)" xlink:href="#aV"/><use transform="matrix(0.06172839506172839,0,0,0.06172839506172839,61.72839506172839,0)" xlink:href="#bI"/><use transform="matrix(0.06172839506172839,0,0,0.06172839506172839,74.07407407407408,0)" xlink:href="#aX"/><use transform="matrix(0.06172839506172839,0,0,0.06172839506172839,80.24691358024691,0)" xlink:href="#bc"/><use transform="matrix(0.06172839506172839,0,0,0.06172839506172839,96.23456790123457,0)" xlink:href="#aV"/><use transform="matrix(0.06172839506172839,0,0,0.06172839506172839,108.58024691358025,0)" xlink:href="#aZ"/><use transform="matrix(0.06172839506172839,0,0,0.06172839506172839,127.03703703703702,0)" xlink:href="#bs"/><use transform="matrix(0.06172839506172839,0,0,0.06172839506172839,139.3827160493827,0)" xlink:href="#ba"/><use transform="matrix(0.06172839506172839,0,0,0.06172839506172839,151.72839506172838,0)" xlink:href="#bb"/><path fill="#3a414a" d="M-1.1 1.54h161.3v1.63H-1.1z"/></g><g id="ab"><use transform="matrix(0.05,0,0,0.05,0,0)" xlink:href="#bx"/><use transform="matrix(0.05,0,0,0.05,12.950000000000001,0)" xlink:href="#bk"/><use transform="matrix(0.05,0,0,0.05,22.950000000000003,0)" xlink:href="#bl"/><use transform="matrix(0.05,0,0,0.05,27.950000000000003,0)" xlink:href="#bh"/><use transform="matrix(0.05,0,0,0.05,37.95,0)" xlink:href="#bj"/><use transform="matrix(0.05,0,0,0.05,50.900000000000006,0)" xlink:href="#bg"/><use transform="matrix(0.05,0,0,0.05,56.85,0)" xlink:href="#bh"/><use transform="matrix(0.05,0,0,0.05,66.85000000000001,0)" xlink:href="#bk"/><use transform="matrix(0.05,0,0,0.05,76.85000000000001,0)" xlink:href="#bl"/><use transform="matrix(0.05,0,0,0.05,81.85000000000001,0)" xlink:href="#bh"/><use transform="matrix(0.05,0,0,0.05,91.85000000000001,0)" xlink:href="#bf"/></g><g id="ac"><use transform="matrix(0.05,0,0,0.05,0,0)" xlink:href="#be"/><use transform="matrix(0.05,0,0,0.05,12,0)" xlink:href="#bG"/><use transform="matrix(0.05,0,0,0.05,21,0)" xlink:href="#bG"/><use transform="matrix(0.05,0,0,0.05,30,0)" xlink:href="#bn"/><use transform="matrix(0.05,0,0,0.05,40,0)" xlink:href="#cb"/><use transform="matrix(0.05,0,0,0.05,50,0)" xlink:href="#bK"/><use transform="matrix(0.05,0,0,0.05,60,0)" xlink:href="#bl"/><use transform="matrix(0.05,0,0,0.05,65,0)" xlink:href="#bU"/><use transform="matrix(0.05,0,0,0.05,74.95,0)" xlink:href="#bo"/><use transform="matrix(0.05,0,0,0.05,83.95,0)" xlink:href="#bJ"/><use transform="matrix(0.05,0,0,0.05,93.95,0)" xlink:href="#bh"/></g><g id="ad"><use transform="matrix(0.06172839506172839,0,0,0.06172839506172839,0,0)" xlink:href="#br"/><use transform="matrix(0.06172839506172839,0,0,0.06172839506172839,14.814814814814813,0)" xlink:href="#bE"/><use transform="matrix(0.06172839506172839,0,0,0.06172839506172839,25.925925925925924,0)" xlink:href="#bE"/><use transform="matrix(0.06172839506172839,0,0,0.06172839506172839,37.03703703703704,0)" xlink:href="#aY"/><use transform="matrix(0.06172839506172839,0,0,0.06172839506172839,49.382716049382715,0)" xlink:href="#aV"/><use transform="matrix(0.06172839506172839,0,0,0.06172839506172839,61.72839506172839,0)" xlink:href="#bI"/><use transform="matrix(0.06172839506172839,0,0,0.06172839506172839,74.07407407407408,0)" xlink:href="#aX"/><use transform="matrix(0.06172839506172839,0,0,0.06172839506172839,80.24691358024691,0)" xlink:href="#bN"/><use transform="matrix(0.06172839506172839,0,0,0.06172839506172839,92.53086419753086,0)" xlink:href="#bu"/><use transform="matrix(0.06172839506172839,0,0,0.06172839506172839,103.64197530864197,0)" xlink:href="#bH"/><use transform="matrix(0.06172839506172839,0,0,0.06172839506172839,115.98765432098766,0)" xlink:href="#ba"/></g><g id="ae"><use transform="matrix(0.06172839506172839,0,0,0.06172839506172839,0,0)" xlink:href="#br"/><use transform="matrix(0.06172839506172839,0,0,0.06172839506172839,14.814814814814813,0)" xlink:href="#bE"/><use transform="matrix(0.06172839506172839,0,0,0.06172839506172839,25.925925925925924,0)" xlink:href="#bE"/><use transform="matrix(0.06172839506172839,0,0,0.06172839506172839,37.03703703703704,0)" xlink:href="#aY"/><use transform="matrix(0.06172839506172839,0,0,0.06172839506172839,49.382716049382715,0)" xlink:href="#aV"/><use transform="matrix(0.06172839506172839,0,0,0.06172839506172839,61.72839506172839,0)" xlink:href="#bI"/><use transform="matrix(0.06172839506172839,0,0,0.06172839506172839,74.07407407407408,0)" xlink:href="#aX"/><use transform="matrix(0.06172839506172839,0,0,0.06172839506172839,80.24691358024691,0)" xlink:href="#bN"/><use transform="matrix(0.06172839506172839,0,0,0.06172839506172839,92.53086419753086,0)" xlink:href="#bu"/><use transform="matrix(0.06172839506172839,0,0,0.06172839506172839,103.64197530864197,0)" xlink:href="#bH"/><use transform="matrix(0.06172839506172839,0,0,0.06172839506172839,115.98765432098766,0)" xlink:href="#ba"/><use transform="matrix(0.06172839506172839,0,0,0.06172839506172839,128.33333333333334,0)" xlink:href="#bv"/><use transform="matrix(0.06172839506172839,0,0,0.06172839506172839,134.50617283950618,0)" xlink:href="#bw"/><path fill="#3a414a" d="M-1.1 1.54h152.7v1.63H-1.1z"/></g><g id="af"><use transform="matrix(0.05,0,0,0.05,0,0)" xlink:href="#be"/><use transform="matrix(0.05,0,0,0.05,12,0)" xlink:href="#bG"/><use transform="matrix(0.05,0,0,0.05,21,0)" xlink:href="#bG"/><use transform="matrix(0.05,0,0,0.05,30,0)" xlink:href="#bn"/><use transform="matrix(0.05,0,0,0.05,40,0)" xlink:href="#cb"/><use transform="matrix(0.05,0,0,0.05,50,0)" xlink:href="#bK"/><use transform="matrix(0.05,0,0,0.05,60,0)" xlink:href="#bl"/><use transform="matrix(0.05,0,0,0.05,65,0)" xlink:href="#bU"/><use transform="matrix(0.05,0,0,0.05,74.95,0)" xlink:href="#bo"/><use transform="matrix(0.05,0,0,0.05,83.95,0)" xlink:href="#bJ"/><use transform="matrix(0.05,0,0,0.05,93.95,0)" xlink:href="#bh"/><use transform="matrix(0.05,0,0,0.05,103.95,0)" xlink:href="#bW"/><use transform="matrix(0.05,0,0,0.05,116.9,0)" xlink:href="#bk"/><use transform="matrix(0.05,0,0,0.05,126.9,0)" xlink:href="#bz"/><use transform="matrix(0.05,0,0,0.05,141.85,0)" xlink:href="#bh"/></g><path fill="#3a414a" d="M197 0v-115H63V0H30v-248h33v105h134v-105h34V0h-34" id="ce"/><g id="ag"><use transform="matrix(0.06172839506172839,0,0,0.06172839506172839,0,0)" xlink:href="#ce"/><use transform="matrix(0.06172839506172839,0,0,0.06172839506172839,15.987654320987653,0)" xlink:href="#bd"/><use transform="matrix(0.06172839506172839,0,0,0.06172839506172839,28.333333333333332,0)" xlink:href="#aW"/></g><g id="ah"><use transform="matrix(0.06172839506172839,0,0,0.06172839506172839,0,0)" xlink:href="#bN"/><use transform="matrix(0.06172839506172839,0,0,0.06172839506172839,12.716049382716047,0)" xlink:href="#bb"/><use transform="matrix(0.06172839506172839,0,0,0.06172839506172839,20.061728395061728,0)" xlink:href="#bd"/><use transform="matrix(0.06172839506172839,0,0,0.06172839506172839,32.407407407407405,0)" xlink:href="#bI"/><use transform="matrix(0.06172839506172839,0,0,0.06172839506172839,44.75308641975308,0)" xlink:href="#aW"/><use transform="matrix(0.06172839506172839,0,0,0.06172839506172839,55.86419753086419,0)" xlink:href="#bd"/><use transform="matrix(0.06172839506172839,0,0,0.06172839506172839,68.20987654320987,0)" xlink:href="#bE"/><use transform="matrix(0.06172839506172839,0,0,0.06172839506172839,79.32098765432099,0)" xlink:href="#bL"/><use transform="matrix(0.06172839506172839,0,0,0.06172839506172839,84.19753086419753,0)" xlink:href="#aX"/><use transform="matrix(0.06172839506172839,0,0,0.06172839506172839,90.37037037037037,0)" xlink:href="#aY"/><use transform="matrix(0.06172839506172839,0,0,0.06172839506172839,102.71604938271605,0)" xlink:href="#bI"/></g><g id="ai"><use transform="matrix(0.06172839506172839,0,0,0.06172839506172839,0,0)" xlink:href="#bN"/><use transform="matrix(0.06172839506172839,0,0,0.06172839506172839,12.716049382716047,0)" xlink:href="#bb"/><use transform="matrix(0.06172839506172839,0,0,0.06172839506172839,20.061728395061728,0)" xlink:href="#bd"/><use transform="matrix(0.06172839506172839,0,0,0.06172839506172839,32.407407407407405,0)" xlink:href="#bI"/><use transform="matrix(0.06172839506172839,0,0,0.06172839506172839,44.75308641975308,0)" xlink:href="#aW"/><use transform="matrix(0.06172839506172839,0,0,0.06172839506172839,55.86419753086419,0)" xlink:href="#bd"/><use transform="matrix(0.06172839506172839,0,0,0.06172839506172839,68.20987654320987,0)" xlink:href="#bE"/><use transform="matrix(0.06172839506172839,0,0,0.06172839506172839,79.32098765432099,0)" xlink:href="#aX"/><use transform="matrix(0.06172839506172839,0,0,0.06172839506172839,85.49382716049382,0)" xlink:href="#bL"/><use transform="matrix(0.06172839506172839,0,0,0.06172839506172839,90.37037037037037,0)" xlink:href="#aY"/><use transform="matrix(0.06172839506172839,0,0,0.06172839506172839,102.71604938271605,0)" xlink:href="#bI"/><use transform="matrix(0.06172839506172839,0,0,0.06172839506172839,115.06172839506173,0)" xlink:href="#bc"/><use transform="matrix(0.06172839506172839,0,0,0.06172839506172839,131.0493827160494,0)" xlink:href="#aV"/><use transform="matrix(0.06172839506172839,0,0,0.06172839506172839,143.39506172839506,0)" xlink:href="#aZ"/><use transform="matrix(0.06172839506172839,0,0,0.06172839506172839,161.85185185185185,0)" xlink:href="#bs"/><use transform="matrix(0.06172839506172839,0,0,0.06172839506172839,174.19753086419752,0)" xlink:href="#ba"/><use transform="matrix(0.06172839506172839,0,0,0.06172839506172839,186.5432098765432,0)" xlink:href="#bb"/><path fill="#3a414a" d="M-1.1 1.54H195v1.63H-1.1z"/></g><g id="aj"><use transform="matrix(0.05,0,0,0.05,0,0)" xlink:href="#bS"/><use transform="matrix(0.05,0,0,0.05,12,0)" xlink:href="#cb"/><use transform="matrix(0.05,0,0,0.05,22,0)" xlink:href="#bJ"/><use transform="matrix(0.05,0,0,0.05,32,0)" xlink:href="#bj"/><use transform="matrix(0.05,0,0,0.05,44.95,0)" xlink:href="#bn"/><use transform="matrix(0.05,0,0,0.05,54.95,0)" xlink:href="#bi"/><use transform="matrix(0.05,0,0,0.05,63.95,0)" xlink:href="#bl"/></g><path fill="#3a414a" d="M240 0l2-218c-23 76-54 145-80 218h-23L58-218 59 0H30v-248h44l77 211c21-75 51-140 76-211h43V0h-30" id="cf"/><g id="ak"><use transform="matrix(0.06172839506172839,0,0,0.06172839506172839,0,0)" xlink:href="#cf"/><use transform="matrix(0.06172839506172839,0,0,0.06172839506172839,18.456790123456788,0)" xlink:href="#bd"/><use transform="matrix(0.06172839506172839,0,0,0.06172839506172839,30.80246913580247,0)" xlink:href="#bI"/><use transform="matrix(0.06172839506172839,0,0,0.06172839506172839,43.148148148148145,0)" xlink:href="#aV"/><use transform="matrix(0.06172839506172839,0,0,0.06172839506172839,55.49382716049382,0)" xlink:href="#bM"/><use transform="matrix(0.06172839506172839,0,0,0.06172839506172839,61.666666666666664,0)" xlink:href="#bd"/><use transform="matrix(0.06172839506172839,0,0,0.06172839506172839,74.01234567901234,0)" xlink:href="#bE"/><use transform="matrix(0.06172839506172839,0,0,0.06172839506172839,85.12345679012346,0)" xlink:href="#aX"/><use transform="matrix(0.06172839506172839,0,0,0.06172839506172839,91.29629629629629,0)" xlink:href="#aV"/><use transform="matrix(0.06172839506172839,0,0,0.06172839506172839,103.64197530864197,0)" xlink:href="#bb"/><use transform="matrix(0.06172839506172839,0,0,0.06172839506172839,110.98765432098766,0)" xlink:href="#ba"/><use transform="matrix(0.06172839506172839,0,0,0.06172839506172839,123.33333333333334,0)" xlink:href="#aW"/></g><path fill="#3a414a" d="M195 0l-74-108L45 0H8l94-129-87-119h37l69 98 67-98h37l-84 118L233 0h-38" id="cg"/><path fill="#3a414a" d="M233-177c-1 41-23 64-60 70L243 0h-38l-65-103H63V0H30v-248c88 3 205-21 203 71zM63-129c60-2 137 13 137-47 0-61-80-42-137-45v92" id="ch"/><path fill="#3a414a" d="M30 0v-248h187v28H63v79h144v27H63v87h162V0H30" id="ci"/><g id="al"><use transform="matrix(0.06172839506172839,0,0,0.06172839506172839,0,0)" xlink:href="#cg"/><use transform="matrix(0.06172839506172839,0,0,0.06172839506172839,14.814814814814813,0)" xlink:href="#ch"/><use transform="matrix(0.06172839506172839,0,0,0.06172839506172839,30.80246913580247,0)" xlink:href="#ci"/><use transform="matrix(0.06172839506172839,0,0,0.06172839506172839,45.61728395061728,0)" xlink:href="#bX"/></g><g id="am"><use transform="matrix(0.06172839506172839,0,0,0.06172839506172839,0,0)" xlink:href="#aV"/><use transform="matrix(0.06172839506172839,0,0,0.06172839506172839,12.345679012345679,0)" xlink:href="#bH"/><use transform="matrix(0.06172839506172839,0,0,0.06172839506172839,24.691358024691358,0)" xlink:href="#bq"/><use transform="matrix(0.06172839506172839,0,0,0.06172839506172839,37.03703703703704,0)" xlink:href="#bd"/><use transform="matrix(0.06172839506172839,0,0,0.06172839506172839,49.382716049382715,0)" xlink:href="#aX"/><use transform="matrix(0.06172839506172839,0,0,0.06172839506172839,55.55555555555556,0)" xlink:href="#ba"/><use transform="matrix(0.06172839506172839,0,0,0.06172839506172839,67.90123456790124,0)" xlink:href="#aW"/></g><g id="an"><use transform="matrix(0.06172839506172839,0,0,0.06172839506172839,0,0)" xlink:href="#aU"/><use transform="matrix(0.06172839506172839,0,0,0.06172839506172839,15.987654320987653,0)" xlink:href="#aY"/><use transform="matrix(0.06172839506172839,0,0,0.06172839506172839,28.333333333333332,0)" xlink:href="#aW"/><use transform="matrix(0.06172839506172839,0,0,0.06172839506172839,39.44444444444444,0)" xlink:href="#aX"/></g><g id="ao"><use transform="matrix(0.06172839506172839,0,0,0.06172839506172839,0,0)" xlink:href="#ch"/><use transform="matrix(0.06172839506172839,0,0,0.06172839506172839,15.987654320987653,0)" xlink:href="#ba"/><use transform="matrix(0.06172839506172839,0,0,0.06172839506172839,28.333333333333332,0)" xlink:href="#bE"/><use transform="matrix(0.06172839506172839,0,0,0.06172839506172839,39.44444444444444,0)" xlink:href="#aY"/><use transform="matrix(0.06172839506172839,0,0,0.06172839506172839,51.79012345679012,0)" xlink:href="#bb"/><use transform="matrix(0.06172839506172839,0,0,0.06172839506172839,59.1358024691358,0)" xlink:href="#bq"/><use transform="matrix(0.06172839506172839,0,0,0.06172839506172839,71.48148148148148,0)" xlink:href="#ba"/><use transform="matrix(0.06172839506172839,0,0,0.06172839506172839,83.82716049382717,0)" xlink:href="#bq"/></g></defs></g></svg>